<?xml version="1.0" encoding="utf-8"?>
<svg viewBox="135.586 85.79 187.901 189.235" xmlns="http://www.w3.org/2000/svg">
  <path d="M 11.291 -20.37 Q 13.968 -20.37 15.35 -19.061 Q 16.733 -17.751 16.733 -15.248 Q 16.733 -13.939 16.107 -12.877 Q 15.481 -11.815 14.274 -11.204 Q 13.066 -10.592 11.262 -10.563 L 11.32 -11.64 Q 12.28 -11.64 13.401 -11.378 Q 14.521 -11.116 15.51 -10.476 Q 16.5 -9.836 17.14 -8.745 Q 17.78 -7.653 17.78 -6.024 Q 17.78 -4.249 17.198 -3.07 Q 16.616 -1.892 15.656 -1.222 Q 14.696 -0.553 13.546 -0.276 Q 12.397 0 11.291 0 L 3.841 0 Q 3.23 0 2.794 -0.422 Q 2.357 -0.844 2.357 -1.484 L 2.357 -18.886 Q 2.357 -19.526 2.794 -19.948 Q 3.23 -20.37 3.841 -20.37 Z M 10.883 -17.518 L 5.151 -17.518 L 5.5 -17.984 L 5.5 -11.727 L 5.18 -12.047 L 10.942 -12.047 Q 11.989 -12.077 12.789 -12.76 Q 13.59 -13.444 13.59 -14.783 Q 13.59 -16.151 12.862 -16.834 Q 12.135 -17.518 10.883 -17.518 Z M 11.087 -9.196 L 5.296 -9.196 L 5.5 -9.399 L 5.5 -2.532 L 5.267 -2.794 L 11.262 -2.794 Q 12.775 -2.794 13.706 -3.594 Q 14.637 -4.394 14.637 -6.024 Q 14.637 -7.391 14.084 -8.061 Q 13.532 -8.73 12.717 -8.963 Q 11.902 -9.196 11.087 -9.196 Z" transform="matrix(0.194748, -0.980853, 0.980853, 0.194748, 155.107117, 175.251862)" style="fill: rgb(207, 229, 248); line-height: 46.624px; white-space: pre;"/>
  <path d="M 3.841 -20.37 L 13.91 -20.37 Q 14.521 -20.37 14.943 -19.963 Q 15.365 -19.555 15.365 -18.944 Q 15.365 -18.333 14.943 -17.955 Q 14.521 -17.576 13.91 -17.576 L 5.122 -17.576 L 5.413 -18.071 L 5.413 -11.553 L 5.151 -11.844 L 12.6 -11.844 Q 13.211 -11.844 13.633 -11.436 Q 14.055 -11.029 14.055 -10.389 Q 14.055 -9.778 13.633 -9.399 Q 13.211 -9.021 12.6 -9.021 L 5.209 -9.021 L 5.413 -9.283 L 5.413 -2.561 L 5.209 -2.794 L 13.91 -2.794 Q 14.521 -2.794 14.943 -2.372 Q 15.365 -1.95 15.365 -1.397 Q 15.365 -0.786 14.943 -0.393 Q 14.521 0 13.91 0 L 3.841 0 Q 3.23 0 2.794 -0.422 Q 2.357 -0.844 2.357 -1.484 L 2.357 -18.886 Q 2.357 -19.526 2.794 -19.948 Q 3.23 -20.37 3.841 -20.37 Z" transform="matrix(0.44401, -0.896022, 0.896022, 0.44401, 159.517059, 155.021622)" style="fill: rgb(207, 229, 248); line-height: 46.624px; white-space: pre;"/>
  <path d="M 16.82 -19.206 Q 17.46 -18.886 17.562 -18.217 Q 17.664 -17.547 17.227 -16.994 Q 16.907 -16.558 16.398 -16.5 Q 15.889 -16.442 15.394 -16.703 Q 14.55 -17.14 13.619 -17.402 Q 12.688 -17.664 11.64 -17.664 Q 9.981 -17.664 8.657 -17.125 Q 7.333 -16.587 6.373 -15.583 Q 5.413 -14.579 4.903 -13.211 Q 4.394 -11.844 4.394 -10.185 Q 4.394 -8.352 4.947 -6.94 Q 5.5 -5.529 6.475 -4.554 Q 7.45 -3.579 8.774 -3.099 Q 10.098 -2.619 11.64 -2.619 Q 12.629 -2.619 13.575 -2.852 Q 14.521 -3.085 15.365 -3.55 Q 15.889 -3.812 16.398 -3.739 Q 16.907 -3.667 17.227 -3.23 Q 17.722 -2.619 17.591 -1.993 Q 17.46 -1.368 16.849 -1.048 Q 16.121 -0.64 15.248 -0.349 Q 14.375 -0.058 13.473 0.116 Q 12.571 0.291 11.64 0.291 Q 9.545 0.291 7.682 -0.407 Q 5.82 -1.106 4.365 -2.444 Q 2.91 -3.783 2.081 -5.733 Q 1.251 -7.682 1.251 -10.185 Q 1.251 -12.426 2.022 -14.332 Q 2.794 -16.238 4.205 -17.62 Q 5.616 -19.002 7.508 -19.773 Q 9.399 -20.545 11.64 -20.545 Q 13.037 -20.545 14.361 -20.195 Q 15.685 -19.846 16.82 -19.206 Z" transform="matrix(0.658689, -0.752415, 0.752415, 0.658689, 167.757095, 138.612)" style="fill: rgb(207, 229, 248); line-height: 46.624px; white-space: pre;"/>
 
</svg>