<?xml version="1.0" encoding="utf-8"?>
<svg viewBox="135.586 85.79 187.901 189.235" xmlns="http://www.w3.org/2000/svg">
  <path d="M 11.291 -20.37 Q 13.968 -20.37 15.35 -19.061 Q 16.733 -17.751 16.733 -15.248 Q 16.733 -13.939 16.107 -12.877 Q 15.481 -11.815 14.274 -11.204 Q 13.066 -10.592 11.262 -10.563 L 11.32 -11.64 Q 12.28 -11.64 13.401 -11.378 Q 14.521 -11.116 15.51 -10.476 Q 16.5 -9.836 17.14 -8.745 Q 17.78 -7.653 17.78 -6.024 Q 17.78 -4.249 17.198 -3.07 Q 16.616 -1.892 15.656 -1.222 Q 14.696 -0.553 13.546 -0.276 Q 12.397 0 11.291 0 L 3.841 0 Q 3.23 0 2.794 -0.422 Q 2.357 -0.844 2.357 -1.484 L 2.357 -18.886 Q 2.357 -19.526 2.794 -19.948 Q 3.23 -20.37 3.841 -20.37 Z M 10.883 -17.518 L 5.151 -17.518 L 5.5 -17.984 L 5.5 -11.727 L 5.18 -12.047 L 10.942 -12.047 Q 11.989 -12.077 12.789 -12.76 Q 13.59 -13.444 13.59 -14.783 Q 13.59 -16.151 12.862 -16.834 Q 12.135 -17.518 10.883 -17.518 Z M 11.087 -9.196 L 5.296 -9.196 L 5.5 -9.399 L 5.5 -2.532 L 5.267 -2.794 L 11.262 -2.794 Q 12.775 -2.794 13.706 -3.594 Q 14.637 -4.394 14.637 -6.024 Q 14.637 -7.391 14.084 -8.061 Q 13.532 -8.73 12.717 -8.963 Q 11.902 -9.196 11.087 -9.196 Z" transform="matrix(0.194748, -0.980853, 0.980853, 0.194748, 155.107117, 175.251862)" style="fill: rgb(207, 229, 248); line-height: 46.624px; white-space: pre;"/>
  <path d="M 3.841 -20.37 L 13.91 -20.37 Q 14.521 -20.37 14.943 -19.963 Q 15.365 -19.555 15.365 -18.944 Q 15.365 -18.333 14.943 -17.955 Q 14.521 -17.576 13.91 -17.576 L 5.122 -17.576 L 5.413 -18.071 L 5.413 -11.553 L 5.151 -11.844 L 12.6 -11.844 Q 13.211 -11.844 13.633 -11.436 Q 14.055 -11.029 14.055 -10.389 Q 14.055 -9.778 13.633 -9.399 Q 13.211 -9.021 12.6 -9.021 L 5.209 -9.021 L 5.413 -9.283 L 5.413 -2.561 L 5.209 -2.794 L 13.91 -2.794 Q 14.521 -2.794 14.943 -2.372 Q 15.365 -1.95 15.365 -1.397 Q 15.365 -0.786 14.943 -0.393 Q 14.521 0 13.91 0 L 3.841 0 Q 3.23 0 2.794 -0.422 Q 2.357 -0.844 2.357 -1.484 L 2.357 -18.886 Q 2.357 -19.526 2.794 -19.948 Q 3.23 -20.37 3.841 -20.37 Z" transform="matrix(0.44401, -0.896022, 0.896022, 0.44401, 159.517059, 155.021622)" style="fill: rgb(207, 229, 248); line-height: 46.624px; white-space: pre;"/>
  <path d="M 16.82 -19.206 Q 17.46 -18.886 17.562 -18.217 Q 17.664 -17.547 17.227 -16.994 Q 16.907 -16.558 16.398 -16.5 Q 15.889 -16.442 15.394 -16.703 Q 14.55 -17.14 13.619 -17.402 Q 12.688 -17.664 11.64 -17.664 Q 9.981 -17.664 8.657 -17.125 Q 7.333 -16.587 6.373 -15.583 Q 5.413 -14.579 4.903 -13.211 Q 4.394 -11.844 4.394 -10.185 Q 4.394 -8.352 4.947 -6.94 Q 5.5 -5.529 6.475 -4.554 Q 7.45 -3.579 8.774 -3.099 Q 10.098 -2.619 11.64 -2.619 Q 12.629 -2.619 13.575 -2.852 Q 14.521 -3.085 15.365 -3.55 Q 15.889 -3.812 16.398 -3.739 Q 16.907 -3.667 17.227 -3.23 Q 17.722 -2.619 17.591 -1.993 Q 17.46 -1.368 16.849 -1.048 Q 16.121 -0.64 15.248 -0.349 Q 14.375 -0.058 13.473 0.116 Q 12.571 0.291 11.64 0.291 Q 9.545 0.291 7.682 -0.407 Q 5.82 -1.106 4.365 -2.444 Q 2.91 -3.783 2.081 -5.733 Q 1.251 -7.682 1.251 -10.185 Q 1.251 -12.426 2.022 -14.332 Q 2.794 -16.238 4.205 -17.62 Q 5.616 -19.002 7.508 -19.773 Q 9.399 -20.545 11.64 -20.545 Q 13.037 -20.545 14.361 -20.195 Q 15.685 -19.846 16.82 -19.206 Z" transform="matrix(0.658689, -0.752415, 0.752415, 0.658689, 167.757095, 138.612)" style="fill: rgb(207, 229, 248); line-height: 46.624px; white-space: pre;"/>
  <path d="M 20.923 -10.185 Q 20.923 -7.973 20.195 -6.067 Q 19.468 -4.161 18.144 -2.735 Q 16.82 -1.31 15.016 -0.509 Q 13.211 0.291 11.058 0.291 Q 8.934 0.291 7.13 -0.509 Q 5.325 -1.31 4.001 -2.735 Q 2.677 -4.161 1.964 -6.067 Q 1.251 -7.973 1.251 -10.185 Q 1.251 -12.397 1.964 -14.303 Q 2.677 -16.209 4.001 -17.635 Q 5.325 -19.061 7.13 -19.861 Q 8.934 -20.661 11.058 -20.661 Q 13.211 -20.661 15.016 -19.861 Q 16.82 -19.061 18.144 -17.635 Q 19.468 -16.209 20.195 -14.303 Q 20.923 -12.397 20.923 -10.185 Z M 17.78 -10.185 Q 17.78 -12.338 16.922 -14.055 Q 16.063 -15.772 14.55 -16.762 Q 13.037 -17.751 11.058 -17.751 Q 9.108 -17.751 7.595 -16.762 Q 6.082 -15.772 5.238 -14.07 Q 4.394 -12.368 4.394 -10.185 Q 4.394 -8.032 5.238 -6.315 Q 6.082 -4.598 7.595 -3.608 Q 9.108 -2.619 11.058 -2.619 Q 13.037 -2.619 14.55 -3.608 Q 16.063 -4.598 16.922 -6.315 Q 17.78 -8.032 17.78 -10.185 Z" transform="matrix(0.847863, -0.530215, 0.530215, 0.847863, 180.997162, 123.441734)" style="fill: rgb(207, 229, 248); line-height: 46.624px; white-space: pre;"/>
  <path d="M 3.87 -20.399 Q 4.22 -20.399 4.598 -20.225 Q 4.976 -20.05 5.18 -19.73 L 12.571 -8.468 L 11.32 -8.526 L 18.857 -19.73 Q 19.322 -20.399 20.05 -20.399 Q 20.632 -20.399 21.083 -19.977 Q 21.534 -19.555 21.534 -18.915 L 21.534 -1.484 Q 21.534 -0.844 21.127 -0.422 Q 20.719 0 20.05 0 Q 19.352 0 18.93 -0.422 Q 18.508 -0.844 18.508 -1.484 L 18.508 -16.238 L 19.439 -16.034 L 13.037 -6.286 Q 12.833 -6.024 12.513 -5.835 Q 12.193 -5.645 11.844 -5.675 Q 11.524 -5.645 11.189 -5.835 Q 10.854 -6.024 10.651 -6.286 L 4.481 -15.889 L 5.18 -17.053 L 5.18 -1.484 Q 5.18 -0.844 4.787 -0.422 Q 4.394 0 3.754 0 Q 3.143 0 2.75 -0.422 Q 2.357 -0.844 2.357 -1.484 L 2.357 -18.915 Q 2.357 -19.526 2.808 -19.963 Q 3.259 -20.399 3.87 -20.399 Z" transform="matrix(0.973936, -0.226821, 0.226821, 0.973936, 201.086975, 110.991913)" style="fill: rgb(207, 229, 248); line-height: 46.624px; white-space: pre;"/>
  <path d="M 3.841 -20.37 L 13.91 -20.37 Q 14.521 -20.37 14.943 -19.963 Q 15.365 -19.555 15.365 -18.944 Q 15.365 -18.333 14.943 -17.955 Q 14.521 -17.576 13.91 -17.576 L 5.122 -17.576 L 5.413 -18.071 L 5.413 -11.553 L 5.151 -11.844 L 12.6 -11.844 Q 13.211 -11.844 13.633 -11.436 Q 14.055 -11.029 14.055 -10.389 Q 14.055 -9.778 13.633 -9.399 Q 13.211 -9.021 12.6 -9.021 L 5.209 -9.021 L 5.413 -9.283 L 5.413 -2.561 L 5.209 -2.794 L 13.91 -2.794 Q 14.521 -2.794 14.943 -2.372 Q 15.365 -1.95 15.365 -1.397 Q 15.365 -0.786 14.943 -0.393 Q 14.521 0 13.91 0 L 3.841 0 Q 3.23 0 2.794 -0.422 Q 2.357 -0.844 2.357 -1.484 L 2.357 -18.886 Q 2.357 -19.526 2.794 -19.948 Q 3.23 -20.37 3.841 -20.37 Z" transform="matrix(0.998027, 0.062791, -0.062791, 0.998027, 226.03688, 105.971878)" style="fill: rgb(207, 229, 248); line-height: 46.624px; white-space: pre;"/>
  <path transform="matrix(0.967268, 0.253758, -0.253758, 0.967268, 244.536743, 107.731941)" style="fill: rgb(207, 229, 248); line-height: 46.624px; white-space: pre;"/>
  <path d="M 20.923 -10.185 Q 20.923 -7.973 20.195 -6.067 Q 19.468 -4.161 18.144 -2.735 Q 16.82 -1.31 15.016 -0.509 Q 13.211 0.291 11.058 0.291 Q 8.934 0.291 7.13 -0.509 Q 5.325 -1.31 4.001 -2.735 Q 2.677 -4.161 1.964 -6.067 Q 1.251 -7.973 1.251 -10.185 Q 1.251 -12.397 1.964 -14.303 Q 2.677 -16.209 4.001 -17.635 Q 5.325 -19.061 7.13 -19.861 Q 8.934 -20.661 11.058 -20.661 Q 13.211 -20.661 15.016 -19.861 Q 16.82 -19.061 18.144 -17.635 Q 19.468 -16.209 20.195 -14.303 Q 20.923 -12.397 20.923 -10.185 Z M 17.78 -10.185 Q 17.78 -12.338 16.922 -14.055 Q 16.063 -15.772 14.55 -16.762 Q 13.037 -17.751 11.058 -17.751 Q 9.108 -17.751 7.595 -16.762 Q 6.082 -15.772 5.238 -14.07 Q 4.394 -12.368 4.394 -10.185 Q 4.394 -8.032 5.238 -6.315 Q 6.082 -4.598 7.595 -3.608 Q 9.108 -2.619 11.058 -2.619 Q 13.037 -2.619 14.55 -3.608 Q 16.063 -4.598 16.922 -6.315 Q 17.78 -8.032 17.78 -10.185 Z" transform="matrix(0.884092, 0.467313, -0.467313, 0.884092, 254.376984, 109.701836)" style="fill: rgb(207, 229, 248); line-height: 46.624px; white-space: pre;"/>
  <path d="M 17.635 -20.37 Q 18.217 -20.37 18.58 -19.977 Q 18.944 -19.584 18.944 -19.002 L 18.944 -1.484 Q 18.944 -0.844 18.522 -0.422 Q 18.1 0 17.46 0 Q 17.169 0 16.834 -0.116 Q 16.5 -0.233 16.325 -0.437 L 4.365 -15.947 L 5.034 -16.325 L 5.034 -1.339 Q 5.034 -0.786 4.656 -0.393 Q 4.278 0 3.696 0 Q 3.085 0 2.721 -0.393 Q 2.357 -0.786 2.357 -1.339 L 2.357 -18.886 Q 2.357 -19.555 2.794 -19.963 Q 3.23 -20.37 3.841 -20.37 Q 4.161 -20.37 4.525 -20.239 Q 4.889 -20.108 5.063 -19.846 L 16.733 -4.656 L 16.296 -4.249 L 16.296 -19.002 Q 16.296 -19.584 16.674 -19.977 Q 17.053 -20.37 17.635 -20.37 Z" transform="matrix(0.698665, 0.715449, -0.715449, 0.698665, 275.146393, 121.031975)" style="fill: rgb(207, 229, 248); line-height: 46.624px; white-space: pre;"/>
  <path d="M 3.841 -20.37 L 13.91 -20.37 Q 14.521 -20.37 14.943 -19.963 Q 15.365 -19.555 15.365 -18.944 Q 15.365 -18.333 14.943 -17.955 Q 14.521 -17.576 13.91 -17.576 L 5.122 -17.576 L 5.413 -18.071 L 5.413 -11.553 L 5.151 -11.844 L 12.6 -11.844 Q 13.211 -11.844 13.633 -11.436 Q 14.055 -11.029 14.055 -10.389 Q 14.055 -9.778 13.633 -9.399 Q 13.211 -9.021 12.6 -9.021 L 5.209 -9.021 L 5.413 -9.283 L 5.413 -2.561 L 5.209 -2.794 L 13.91 -2.794 Q 14.521 -2.794 14.943 -2.372 Q 15.365 -1.95 15.365 -1.397 Q 15.365 -0.786 14.943 -0.393 Q 14.521 0 13.91 0 L 3.841 0 Q 3.23 0 2.794 -0.422 Q 2.357 -0.844 2.357 -1.484 L 2.357 -18.886 Q 2.357 -19.526 2.794 -19.948 Q 3.23 -20.37 3.841 -20.37 Z" transform="matrix(0.476699, 0.879067, -0.879067, 0.476699, 290.806122, 137.841965)" style="fill: rgb(207, 229, 248); line-height: 46.624px; white-space: pre;"/>
  <path transform="matrix(0.298041, 0.954553, -0.954553, 0.298041, 299.116394, 154.441589)" style="fill: rgb(207, 229, 248); line-height: 46.624px; white-space: pre;"/>
  <path d="M 5.034 -6.257 Q 3.958 -6.257 3.041 -6.795 Q 2.124 -7.333 1.586 -8.235 Q 1.048 -9.137 1.048 -10.214 Q 1.048 -11.378 1.601 -12.28 Q 2.153 -13.182 3.056 -13.706 Q 3.958 -14.23 5.034 -14.23 Q 6.14 -14.23 7.042 -13.706 Q 7.944 -13.182 8.497 -12.28 Q 9.05 -11.378 9.05 -10.214 Q 9.05 -9.137 8.497 -8.235 Q 7.944 -7.333 7.042 -6.795 Q 6.14 -6.257 5.034 -6.257 Z" transform="matrix(0.149018, 0.988834, -0.988834, 0.149018, 302.096924, 164.281616)" style="fill: rgb(207, 229, 248); line-height: 46.624px; white-space: pre;"/>
  <path transform="matrix(-0.016231, 0.999868, -0.999868, -0.016231, 303.746338, 176.362305)" style="fill: rgb(207, 229, 248); line-height: 46.624px; white-space: pre;"/>
  <path d="M 11.291 -20.37 Q 13.968 -20.37 15.35 -19.061 Q 16.733 -17.751 16.733 -15.248 Q 16.733 -13.939 16.107 -12.877 Q 15.481 -11.815 14.274 -11.204 Q 13.066 -10.592 11.262 -10.563 L 11.32 -11.64 Q 12.28 -11.64 13.401 -11.378 Q 14.521 -11.116 15.51 -10.476 Q 16.5 -9.836 17.14 -8.745 Q 17.78 -7.653 17.78 -6.024 Q 17.78 -4.249 17.198 -3.07 Q 16.616 -1.892 15.656 -1.222 Q 14.696 -0.553 13.546 -0.276 Q 12.397 0 11.291 0 L 3.841 0 Q 3.23 0 2.794 -0.422 Q 2.357 -0.844 2.357 -1.484 L 2.357 -18.886 Q 2.357 -19.526 2.794 -19.948 Q 3.23 -20.37 3.841 -20.37 Z M 10.883 -17.518 L 5.151 -17.518 L 5.5 -17.984 L 5.5 -11.727 L 5.18 -12.047 L 10.942 -12.047 Q 11.989 -12.077 12.789 -12.76 Q 13.59 -13.444 13.59 -14.783 Q 13.59 -16.151 12.862 -16.834 Q 12.135 -17.518 10.883 -17.518 Z M 11.087 -9.196 L 5.296 -9.196 L 5.5 -9.399 L 5.5 -2.532 L 5.267 -2.794 L 11.262 -2.794 Q 12.775 -2.794 13.706 -3.594 Q 14.637 -4.394 14.637 -6.024 Q 14.637 -7.391 14.084 -8.061 Q 13.532 -8.73 12.717 -8.963 Q 11.902 -9.196 11.087 -9.196 Z" transform="matrix(-0.207058, 0.978329, -0.978329, -0.207058, 304.046387, 186.501968)" style="fill: rgb(207, 229, 248); line-height: 46.624px; white-space: pre;"/>
  <path d="M 3.841 -20.37 L 13.91 -20.37 Q 14.521 -20.37 14.943 -19.963 Q 15.365 -19.555 15.365 -18.944 Q 15.365 -18.333 14.943 -17.955 Q 14.521 -17.576 13.91 -17.576 L 5.122 -17.576 L 5.413 -18.071 L 5.413 -11.553 L 5.151 -11.844 L 12.6 -11.844 Q 13.211 -11.844 13.633 -11.436 Q 14.055 -11.029 14.055 -10.389 Q 14.055 -9.778 13.633 -9.399 Q 13.211 -9.021 12.6 -9.021 L 5.209 -9.021 L 5.413 -9.283 L 5.413 -2.561 L 5.209 -2.794 L 13.91 -2.794 Q 14.521 -2.794 14.943 -2.372 Q 15.365 -1.95 15.365 -1.397 Q 15.365 -0.786 14.943 -0.393 Q 14.521 0 13.91 0 L 3.841 0 Q 3.23 0 2.794 -0.422 Q 2.357 -0.844 2.357 -1.484 L 2.357 -18.886 Q 2.357 -19.526 2.794 -19.948 Q 3.23 -20.37 3.841 -20.37 Z" transform="matrix(-0.455545, 0.890213, -0.890213, -0.455545, 299.377319, 206.702026)" style="fill: rgb(207, 229, 248); line-height: 46.624px; white-space: pre;"/>
  <path d="M 16.82 -19.206 Q 17.46 -18.886 17.562 -18.217 Q 17.664 -17.547 17.227 -16.994 Q 16.907 -16.558 16.398 -16.5 Q 15.889 -16.442 15.394 -16.703 Q 14.55 -17.14 13.619 -17.402 Q 12.688 -17.664 11.64 -17.664 Q 9.981 -17.664 8.657 -17.125 Q 7.333 -16.587 6.373 -15.583 Q 5.413 -14.579 4.903 -13.211 Q 4.394 -11.844 4.394 -10.185 Q 4.394 -8.352 4.947 -6.94 Q 5.5 -5.529 6.475 -4.554 Q 7.45 -3.579 8.774 -3.099 Q 10.098 -2.619 11.64 -2.619 Q 12.629 -2.619 13.575 -2.852 Q 14.521 -3.085 15.365 -3.55 Q 15.889 -3.812 16.398 -3.739 Q 16.907 -3.667 17.227 -3.23 Q 17.722 -2.619 17.591 -1.993 Q 17.46 -1.368 16.849 -1.048 Q 16.121 -0.64 15.248 -0.349 Q 14.375 -0.058 13.473 0.116 Q 12.571 0.291 11.64 0.291 Q 9.545 0.291 7.682 -0.407 Q 5.82 -1.106 4.365 -2.444 Q 2.91 -3.783 2.081 -5.733 Q 1.251 -7.682 1.251 -10.185 Q 1.251 -12.426 2.022 -14.332 Q 2.794 -16.238 4.205 -17.62 Q 5.616 -19.002 7.508 -19.773 Q 9.399 -20.545 11.64 -20.545 Q 13.037 -20.545 14.361 -20.195 Q 15.685 -19.846 16.82 -19.206 Z" transform="matrix(-0.668092, 0.744078, -0.744078, -0.668092, 290.926208, 222.992218)" style="fill: rgb(207, 229, 248); line-height: 46.624px; white-space: pre;"/>
  <path d="M 20.923 -10.185 Q 20.923 -7.973 20.195 -6.067 Q 19.468 -4.161 18.144 -2.735 Q 16.82 -1.31 15.016 -0.509 Q 13.211 0.291 11.058 0.291 Q 8.934 0.291 7.13 -0.509 Q 5.325 -1.31 4.001 -2.735 Q 2.677 -4.161 1.964 -6.067 Q 1.251 -7.973 1.251 -10.185 Q 1.251 -12.397 1.964 -14.303 Q 2.677 -16.209 4.001 -17.635 Q 5.325 -19.061 7.13 -19.861 Q 8.934 -20.661 11.058 -20.661 Q 13.211 -20.661 15.016 -19.861 Q 16.82 -19.061 18.144 -17.635 Q 19.468 -16.209 20.195 -14.303 Q 20.923 -12.397 20.923 -10.185 Z M 17.78 -10.185 Q 17.78 -12.338 16.922 -14.055 Q 16.063 -15.772 14.55 -16.762 Q 13.037 -17.751 11.058 -17.751 Q 9.108 -17.751 7.595 -16.762 Q 6.082 -15.772 5.238 -14.07 Q 4.394 -12.368 4.394 -10.185 Q 4.394 -8.032 5.238 -6.315 Q 6.082 -4.598 7.595 -3.608 Q 9.108 -2.619 11.058 -2.619 Q 13.037 -2.619 14.55 -3.608 Q 16.063 -4.598 16.922 -6.315 Q 17.78 -8.032 17.78 -10.185 Z" transform="matrix(-0.854459, 0.519519, -0.519519, -0.854459, 277.516907, 237.981522)" style="fill: rgb(207, 229, 248); line-height: 46.624px; white-space: pre;"/>
  <path d="M 3.87 -20.399 Q 4.22 -20.399 4.598 -20.225 Q 4.976 -20.05 5.18 -19.73 L 12.571 -8.468 L 11.32 -8.526 L 18.857 -19.73 Q 19.322 -20.399 20.05 -20.399 Q 20.632 -20.399 21.083 -19.977 Q 21.534 -19.555 21.534 -18.915 L 21.534 -1.484 Q 21.534 -0.844 21.127 -0.422 Q 20.719 0 20.05 0 Q 19.352 0 18.93 -0.422 Q 18.508 -0.844 18.508 -1.484 L 18.508 -16.238 L 19.439 -16.034 L 13.037 -6.286 Q 12.833 -6.024 12.513 -5.835 Q 12.193 -5.645 11.844 -5.675 Q 11.524 -5.645 11.189 -5.835 Q 10.854 -6.024 10.651 -6.286 L 4.481 -15.889 L 5.18 -17.053 L 5.18 -1.484 Q 5.18 -0.844 4.787 -0.422 Q 4.394 0 3.754 0 Q 3.143 0 2.75 -0.422 Q 2.357 -0.844 2.357 -1.484 L 2.357 -18.915 Q 2.357 -19.526 2.808 -19.963 Q 3.259 -20.399 3.87 -20.399 Z" transform="matrix(-0.976785, 0.214224, -0.214224, -0.976785, 257.247955, 250.192398)" style="fill: rgb(207, 229, 248); line-height: 46.624px; white-space: pre;"/>
  <path d="M 3.841 -20.37 L 13.91 -20.37 Q 14.521 -20.37 14.943 -19.963 Q 15.365 -19.555 15.365 -18.944 Q 15.365 -18.333 14.943 -17.955 Q 14.521 -17.576 13.91 -17.576 L 5.122 -17.576 L 5.413 -18.071 L 5.413 -11.553 L 5.151 -11.844 L 12.6 -11.844 Q 13.211 -11.844 13.633 -11.436 Q 14.055 -11.029 14.055 -10.389 Q 14.055 -9.778 13.633 -9.399 Q 13.211 -9.021 12.6 -9.021 L 5.209 -9.021 L 5.413 -9.283 L 5.413 -2.561 L 5.209 -2.794 L 13.91 -2.794 Q 14.521 -2.794 14.943 -2.372 Q 15.365 -1.95 15.365 -1.397 Q 15.365 -0.786 14.943 -0.393 Q 14.521 0 13.91 0 L 3.841 0 Q 3.23 0 2.794 -0.422 Q 2.357 -0.844 2.357 -1.484 L 2.357 -18.886 Q 2.357 -19.526 2.794 -19.948 Q 3.23 -20.37 3.841 -20.37 Z" transform="matrix(-0.997146, -0.075501, 0.075501, -0.997146, 232.235168, 254.891266)" style="fill: rgb(207, 229, 248); line-height: 46.624px; white-space: pre;"/>
  <path transform="matrix(-0.963956, -0.266061, 0.266061, -0.963956, 213.767624, 252.893295)" style="fill: rgb(207, 229, 248); line-height: 46.624px; white-space: pre;"/>
  <path d="M 20.923 -10.185 Q 20.923 -7.973 20.195 -6.067 Q 19.468 -4.161 18.144 -2.735 Q 16.82 -1.31 15.016 -0.509 Q 13.211 0.291 11.058 0.291 Q 8.934 0.291 7.13 -0.509 Q 5.325 -1.31 4.001 -2.735 Q 2.677 -4.161 1.964 -6.067 Q 1.251 -7.973 1.251 -10.185 Q 1.251 -12.397 1.964 -14.303 Q 2.677 -16.209 4.001 -17.635 Q 5.325 -19.061 7.13 -19.861 Q 8.934 -20.661 11.058 -20.661 Q 13.211 -20.661 15.016 -19.861 Q 16.82 -19.061 18.144 -17.635 Q 19.468 -16.209 20.195 -14.303 Q 20.923 -12.397 20.923 -10.185 Z M 17.78 -10.185 Q 17.78 -12.338 16.922 -14.055 Q 16.063 -15.772 14.55 -16.762 Q 13.037 -17.751 11.058 -17.751 Q 9.108 -17.751 7.595 -16.762 Q 6.082 -15.772 5.238 -14.07 Q 4.394 -12.368 4.394 -10.185 Q 4.394 -8.032 5.238 -6.315 Q 6.082 -4.598 7.595 -3.608 Q 9.108 -2.619 11.058 -2.619 Q 13.037 -2.619 14.55 -3.608 Q 16.063 -4.598 16.922 -6.315 Q 17.78 -8.032 17.78 -10.185 Z" transform="matrix(-0.87815, -0.478385, 0.478385, -0.87815, 203.966476, 250.801163)" style="fill: rgb(207, 229, 248); line-height: 46.624px; white-space: pre;"/>
  <path d="M 17.635 -20.37 Q 18.217 -20.37 18.58 -19.977 Q 18.944 -19.584 18.944 -19.002 L 18.944 -1.484 Q 18.944 -0.844 18.522 -0.422 Q 18.1 0 17.46 0 Q 17.169 0 16.834 -0.116 Q 16.5 -0.233 16.325 -0.437 L 4.365 -15.947 L 5.034 -16.325 L 5.034 -1.339 Q 5.034 -0.786 4.656 -0.393 Q 4.278 0 3.696 0 Q 3.085 0 2.721 -0.393 Q 2.357 -0.786 2.357 -1.339 L 2.357 -18.886 Q 2.357 -19.555 2.794 -19.963 Q 3.23 -20.37 3.841 -20.37 Q 4.161 -20.37 4.525 -20.239 Q 4.889 -20.108 5.063 -19.846 L 16.733 -4.656 L 16.296 -4.249 L 16.296 -19.002 Q 16.296 -19.584 16.674 -19.977 Q 17.053 -20.37 17.635 -20.37 Z" transform="matrix(-0.689493, -0.724292, 0.724292, -0.689493, 183.316605, 239.212173)" style="fill: rgb(207, 229, 248); line-height: 46.624px; white-space: pre;"/>
  <path d="M 3.841 -20.37 L 13.91 -20.37 Q 14.521 -20.37 14.943 -19.963 Q 15.365 -19.555 15.365 -18.944 Q 15.365 -18.333 14.943 -17.955 Q 14.521 -17.576 13.91 -17.576 L 5.122 -17.576 L 5.413 -18.071 L 5.413 -11.553 L 5.151 -11.844 L 12.6 -11.844 Q 13.211 -11.844 13.633 -11.436 Q 14.055 -11.029 14.055 -10.389 Q 14.055 -9.778 13.633 -9.399 Q 13.211 -9.021 12.6 -9.021 L 5.209 -9.021 L 5.413 -9.283 L 5.413 -2.561 L 5.209 -2.794 L 13.91 -2.794 Q 14.521 -2.794 14.943 -2.372 Q 15.365 -1.95 15.365 -1.397 Q 15.365 -0.786 14.943 -0.393 Q 14.521 0 13.91 0 L 3.841 0 Q 3.23 0 2.794 -0.422 Q 2.357 -0.844 2.357 -1.484 L 2.357 -18.886 Q 2.357 -19.526 2.794 -19.948 Q 3.23 -20.37 3.841 -20.37 Z" transform="matrix(-0.465615, -0.884987, 0.884987, -0.465615, 167.896225, 222.210693)" style="fill: rgb(207, 229, 248); line-height: 46.624px; white-space: pre;"/>
  <path transform="matrix(-0.285856, -0.958273, 0.958273, -0.285856, 159.786835, 205.502014)" style="fill: rgb(207, 229, 248); line-height: 46.624px; white-space: pre;"/>
  <path d="M 5.034 -6.257 Q 3.958 -6.257 3.041 -6.795 Q 2.124 -7.333 1.586 -8.235 Q 1.048 -9.137 1.048 -10.214 Q 1.048 -11.378 1.601 -12.28 Q 2.153 -13.182 3.056 -13.706 Q 3.958 -14.23 5.034 -14.23 Q 6.14 -14.23 7.042 -13.706 Q 7.944 -13.182 8.497 -12.28 Q 9.05 -11.378 9.05 -10.214 Q 9.05 -9.137 8.497 -8.235 Q 7.944 -7.333 7.042 -6.795 Q 6.14 -6.257 5.034 -6.257 Z" transform="matrix(-0.13658, -0.990629, 0.990629, -0.13658, 156.938293, 195.632309)" style="fill: rgb(207, 229, 248); line-height: 46.624px; white-space: pre;"/>
  <path transform="matrix(0.016231, -0.999868, 0.999868, 0.016231, 155.486298, 183.500687)" style="fill: rgb(207, 229, 248); line-height: 46.624px; white-space: pre;"/>
  <path class="cls-2" d="M 231.247 131.262 C 230.273 130.332 228.741 130.332 227.767 131.262 C 227.487 131.542 224.047 134.932 220.637 139.552 C 219.584 140.981 218.599 142.459 217.687 143.982 C 215.427 147.762 213.687 151.902 213.687 155.692 C 213.687 159.482 214.837 162.492 216.697 164.862 C 217.817 166.272 219.167 167.422 220.687 168.322 C 223.347 169.912 226.477 170.722 229.607 170.722 C 237.517 170.722 245.527 165.562 245.527 155.692 C 245.527 145.132 231.837 131.812 231.247 131.252 L 231.247 131.262 Z M 229.607 165.732 C 227.647 165.732 226.027 165.412 224.677 164.862 C 222.907 164.142 221.617 163.052 220.687 161.812 C 219.217 159.832 218.687 157.472 218.687 155.692 C 218.687 153.632 219.467 151.272 220.667 148.882 C 221.497 147.222 222.527 145.562 223.627 143.972 C 225.587 141.112 227.797 138.512 229.527 136.632 C 233.677 141.072 240.527 149.632 240.527 155.692 C 240.527 159.422 238.227 165.722 229.607 165.722 L 229.607 165.732 Z M 272.537 188.012 C 268.797 190.022 265.137 191.032 261.667 191.032 C 255.277 191.032 250.157 188.362 245.217 185.782 C 240.427 183.282 235.477 180.702 229.607 180.702 C 223.737 180.702 218.787 183.282 213.997 185.782 C 209.047 188.362 203.937 191.032 197.547 191.032 C 194.077 191.032 190.427 190.012 186.677 188.012 C 185.462 187.362 183.95 187.818 183.297 189.032 C 182.647 190.252 183.097 191.762 184.317 192.412 C 188.797 194.812 193.247 196.032 197.547 196.032 C 205.157 196.032 211.087 192.942 216.307 190.212 C 220.757 187.892 224.957 185.702 229.607 185.702 C 234.257 185.702 238.457 187.892 242.907 190.212 C 248.137 192.942 254.057 196.032 261.667 196.032 C 265.967 196.032 270.417 194.812 274.897 192.412 C 276.113 191.761 276.569 190.247 275.917 189.032 C 275.264 187.818 273.752 187.362 272.537 188.012 Z M 272.537 208.962 C 268.797 210.972 265.137 211.982 261.667 211.982 C 255.277 211.982 250.157 209.312 245.217 206.732 C 240.427 204.232 235.477 201.652 229.607 201.652 C 223.737 201.652 218.787 204.232 213.997 206.732 C 209.047 209.312 203.937 211.982 197.547 211.982 C 194.077 211.982 190.417 210.962 186.677 208.962 C 185.457 208.312 183.947 208.762 183.297 209.982 C 182.647 211.202 183.097 212.712 184.317 213.362 C 188.787 215.762 193.247 216.982 197.547 216.982 C 205.157 216.982 211.087 213.892 216.307 211.162 C 220.757 208.842 224.957 206.652 229.607 206.652 C 234.257 206.652 238.457 208.842 242.907 211.162 C 248.137 213.892 254.057 216.982 261.667 216.982 C 265.967 216.982 270.417 215.762 274.897 213.362 C 276.113 212.711 276.569 211.197 275.917 209.982 C 275.264 208.768 273.752 208.312 272.537 208.962 Z" style="fill: rgb(207, 229, 248);"/>
  <path d="M 231.591 130.889 C 232.183 131.452 246.027 144.953 246.027 155.692 C 246.027 160.745 243.918 164.707 240.856 167.29 C 237.792 169.875 233.639 171.222 229.607 171.222 C 226.414 171.222 223.158 170.37 220.432 168.752 C 218.878 167.827 217.457 166.616 216.304 165.171 C 214.407 162.736 213.187 159.571 213.187 155.692 C 213.187 151.805 214.982 147.537 217.258 143.725 C 218.176 142.192 219.175 140.694 220.235 139.255 C 223.67 134.605 227.143 131.179 227.422 130.9 C 227.994 130.382 228.794 130.065 229.507 130.065 C 230.22 130.065 231.02 130.382 231.592 130.9 L 230.747 130.135 L 230.747 130.088 Z M 231.747 132.453 L 231.747 132.49 L 230.902 131.624 C 230.5 131.212 230.047 131.064 229.507 131.064 C 228.967 131.064 228.514 131.212 228.112 131.624 C 227.831 131.905 224.424 135.259 221.039 139.849 C 219.993 141.268 219.022 142.726 218.116 144.239 C 215.872 147.987 214.187 151.999 214.187 155.692 C 214.187 159.393 215.267 162.248 217.09 164.553 C 218.177 165.928 219.456 167.017 220.942 167.892 C 223.536 169.454 226.54 170.222 229.607 170.222 C 233.485 170.222 237.292 168.989 240.211 166.526 C 243.131 164.062 245.027 160.509 245.027 155.692 C 245.027 146.677 234.818 135.582 231.747 132.453 Z M 229.607 166.232 C 227.599 166.227 225.884 165.889 224.489 165.325 C 222.651 164.564 221.254 163.391 220.286 162.11 C 218.772 160.036 218.187 157.527 218.187 155.692 C 218.187 153.554 219.006 151.082 220.22 148.658 C 221.061 146.978 222.109 145.289 223.215 143.688 C 225.191 140.808 227.423 138.181 229.159 136.293 L 229.524 135.897 L 229.892 136.291 C 234.055 140.745 241.027 149.476 241.027 155.692 C 241.027 157.613 240.41 160.294 238.688 162.42 C 236.979 164.531 234.042 166.189 229.607 166.222 L 230.107 166.218 L 230.107 166.233 Z M 229.107 165.226 L 229.107 165.218 L 229.607 165.222 C 233.792 165.255 236.315 163.763 237.911 161.791 C 239.494 159.835 240.027 157.501 240.027 155.692 C 240.027 149.788 233.689 141.886 229.53 137.37 C 227.869 139.201 225.984 141.415 224.039 144.255 C 222.946 145.834 221.933 147.466 221.114 149.106 C 219.928 151.462 219.187 153.71 219.187 155.692 C 219.187 157.417 219.661 159.628 221.088 161.514 C 221.979 162.712 223.163 163.719 224.865 164.399 C 226.054 164.888 227.426 165.181 229.107 165.226 Z M 276.358 188.796 C 276.713 189.503 276.796 190.381 276.586 191.078 C 276.376 191.775 275.821 192.46 275.133 192.853 C 270.601 195.274 266.033 196.532 261.667 196.532 C 253.941 196.532 247.906 193.385 242.676 190.655 C 238.226 188.335 234.141 186.202 229.607 186.202 C 225.073 186.202 220.988 188.335 216.538 190.655 C 211.318 193.385 205.273 196.532 197.547 196.532 C 193.181 196.532 188.614 195.274 184.082 192.853 C 183.392 192.461 182.836 191.777 182.627 191.08 C 182.417 190.383 182.503 189.504 182.857 188.795 C 183.251 188.109 183.935 187.555 184.632 187.344 C 185.329 187.134 186.205 187.217 186.913 187.571 C 190.612 189.551 194.144 190.532 197.547 190.532 C 203.821 190.532 208.816 187.919 213.766 185.339 C 218.556 182.839 223.621 180.202 229.607 180.202 C 235.593 180.202 240.658 182.839 245.448 185.339 C 250.388 187.919 255.393 190.532 261.667 190.532 C 265.071 190.532 268.613 189.56 272.301 187.571 C 273.009 187.217 273.885 187.134 274.582 187.344 C 275.279 187.555 275.964 188.109 276.358 188.796 Z M 274.293 188.302 C 273.767 188.143 273.28 188.157 272.773 188.453 C 268.981 190.483 265.204 191.532 261.667 191.532 C 255.161 191.532 249.926 188.805 244.986 186.225 C 240.196 183.725 235.361 181.202 229.607 181.202 C 223.853 181.202 219.018 183.725 214.228 186.225 C 209.279 188.805 204.053 191.532 197.547 191.532 C 194.01 191.532 190.242 190.473 186.442 188.453 C 185.934 188.157 185.447 188.143 184.921 188.302 C 184.394 188.46 183.997 188.74 183.738 189.268 C 183.442 189.778 183.427 190.266 183.585 190.792 C 183.743 191.317 184.022 191.713 184.552 191.971 C 188.98 194.35 193.313 195.532 197.547 195.532 C 205.041 195.532 210.856 192.499 216.075 189.769 C 220.525 187.449 224.841 185.202 229.607 185.202 C 234.373 185.202 238.688 187.449 243.138 189.769 C 248.368 192.499 254.173 195.532 261.667 195.532 C 265.901 195.532 270.233 194.351 274.661 191.971 C 275.189 191.713 275.47 191.316 275.629 190.789 C 275.788 190.263 275.773 189.776 275.477 189.269 C 275.218 188.741 274.82 188.46 274.293 188.302 Z M 276.358 209.746 C 276.713 210.453 276.796 211.331 276.586 212.028 C 276.376 212.725 275.821 213.41 275.133 213.803 C 270.601 216.224 266.033 217.482 261.667 217.482 C 253.941 217.482 247.906 214.335 242.676 211.605 C 238.226 209.285 234.141 207.152 229.607 207.152 C 225.073 207.152 220.989 209.285 216.539 211.605 C 211.318 214.335 205.273 217.482 197.547 217.482 C 193.181 217.482 188.604 216.224 184.082 213.803 C 183.392 213.411 182.836 212.727 182.627 212.03 C 182.417 211.333 182.483 210.446 182.856 209.747 C 183.229 209.046 183.932 208.501 184.629 208.292 C 185.326 208.082 186.203 208.167 186.913 208.521 C 190.602 210.501 194.144 211.482 197.547 211.482 C 203.821 211.482 208.816 208.869 213.766 206.289 C 218.556 203.789 223.621 201.152 229.607 201.152 C 235.593 201.152 240.658 203.789 245.448 206.289 C 250.388 208.869 255.393 211.482 261.667 211.482 C 265.071 211.482 268.613 210.51 272.301 208.521 C 273.009 208.167 273.885 208.084 274.582 208.294 C 275.279 208.505 275.964 209.059 276.358 209.746 Z M 274.293 209.252 C 273.767 209.093 273.28 209.107 272.773 209.403 C 268.981 211.433 265.204 212.482 261.667 212.482 C 255.161 212.482 249.926 209.755 244.986 207.175 C 240.196 204.675 235.361 202.152 229.607 202.152 C 223.853 202.152 219.018 204.675 214.228 207.175 C 209.279 209.755 204.053 212.482 197.547 212.482 C 194.01 212.482 190.232 211.423 186.442 209.403 C 185.931 209.107 185.443 209.092 184.917 209.25 C 184.392 209.408 184.015 209.698 183.738 210.217 C 183.461 210.738 183.427 211.216 183.585 211.742 C 183.743 212.267 184.022 212.663 184.552 212.921 C 188.97 215.3 193.313 216.482 197.547 216.482 C 205.041 216.482 210.856 213.449 216.075 210.719 C 220.525 208.399 224.841 206.152 229.607 206.152 C 234.373 206.152 238.688 208.399 243.138 210.719 C 248.368 213.449 254.173 216.482 261.667 216.482 C 265.901 216.482 270.233 215.301 274.661 212.921 C 275.189 212.663 275.47 212.266 275.629 211.739 C 275.788 211.213 275.773 210.726 275.477 210.219 C 275.218 209.691 274.82 209.41 274.293 209.252 Z" style="fill: none;"/>
  <path d="M 231.591 130.889 C 232.183 131.452 246.027 144.953 246.027 155.692 C 246.027 160.745 243.918 164.707 240.856 167.29 C 237.792 169.875 233.639 171.222 229.607 171.222 C 226.414 171.222 223.158 170.37 220.432 168.752 C 218.878 167.827 217.457 166.616 216.304 165.171 C 214.407 162.736 213.187 159.571 213.187 155.692 C 213.187 151.805 214.982 147.537 217.258 143.725 C 218.176 142.192 219.175 140.694 220.235 139.255 C 223.67 134.605 227.143 131.179 227.422 130.9 C 227.994 130.382 228.794 130.065 229.507 130.065 C 230.22 130.065 231.02 130.382 231.592 130.9 L 230.747 130.135 L 230.747 130.088 Z M 231.747 132.453 L 231.747 132.49 L 230.902 131.624 C 230.5 131.212 230.047 131.064 229.507 131.064 C 228.967 131.064 228.514 131.212 228.112 131.624 C 227.831 131.905 224.424 135.259 221.039 139.849 C 219.993 141.268 219.022 142.726 218.116 144.239 C 215.872 147.987 214.187 151.999 214.187 155.692 C 214.187 159.393 215.267 162.248 217.09 164.553 C 218.177 165.928 219.456 167.017 220.942 167.892 C 223.536 169.454 226.54 170.222 229.607 170.222 C 233.485 170.222 237.292 168.989 240.211 166.526 C 243.131 164.062 245.027 160.509 245.027 155.692 C 245.027 146.677 234.818 135.582 231.747 132.453 Z M 229.607 166.232 C 227.599 166.227 225.884 165.889 224.489 165.325 C 222.651 164.564 221.254 163.391 220.286 162.11 C 218.772 160.036 218.187 157.527 218.187 155.692 C 218.187 153.554 219.006 151.082 220.22 148.658 C 221.061 146.978 222.109 145.289 223.215 143.688 C 225.191 140.808 227.423 138.181 229.159 136.293 L 229.524 135.897 L 229.892 136.291 C 234.055 140.745 241.027 149.476 241.027 155.692 C 241.027 157.613 240.41 160.294 238.688 162.42 C 236.979 164.531 234.042 166.189 229.607 166.222 L 230.107 166.218 L 230.107 166.233 Z M 229.107 165.226 L 229.107 165.218 L 229.607 165.222 C 233.792 165.255 236.315 163.763 237.911 161.791 C 239.494 159.835 240.027 157.501 240.027 155.692 C 240.027 149.788 233.689 141.886 229.53 137.37 C 227.869 139.201 225.984 141.415 224.039 144.255 C 222.946 145.834 221.933 147.466 221.114 149.106 C 219.928 151.462 219.187 153.71 219.187 155.692 C 219.187 157.417 219.661 159.628 221.088 161.514 C 221.979 162.712 223.163 163.719 224.865 164.399 C 226.054 164.888 227.426 165.181 229.107 165.226 Z M 276.358 188.796 C 276.713 189.503 276.796 190.381 276.586 191.078 C 276.376 191.775 275.821 192.46 275.133 192.853 C 270.601 195.274 266.033 196.532 261.667 196.532 C 253.941 196.532 247.906 193.385 242.676 190.655 C 238.226 188.335 234.141 186.202 229.607 186.202 C 225.073 186.202 220.988 188.335 216.538 190.655 C 211.318 193.385 205.273 196.532 197.547 196.532 C 193.181 196.532 188.614 195.274 184.082 192.853 C 183.392 192.461 182.836 191.777 182.627 191.08 C 182.417 190.383 182.503 189.504 182.857 188.795 C 183.251 188.109 183.935 187.555 184.632 187.344 C 185.329 187.134 186.205 187.217 186.913 187.571 C 190.612 189.551 194.144 190.532 197.547 190.532 C 203.821 190.532 208.816 187.919 213.766 185.339 C 218.556 182.839 223.621 180.202 229.607 180.202 C 235.593 180.202 240.658 182.839 245.448 185.339 C 250.388 187.919 255.393 190.532 261.667 190.532 C 265.071 190.532 268.613 189.56 272.301 187.571 C 273.009 187.217 273.885 187.134 274.582 187.344 C 275.279 187.555 275.964 188.109 276.358 188.796 Z M 274.293 188.302 C 273.767 188.143 273.28 188.157 272.773 188.453 C 268.981 190.483 265.204 191.532 261.667 191.532 C 255.161 191.532 249.926 188.805 244.986 186.225 C 240.196 183.725 235.361 181.202 229.607 181.202 C 223.853 181.202 219.018 183.725 214.228 186.225 C 209.279 188.805 204.053 191.532 197.547 191.532 C 194.01 191.532 190.242 190.473 186.442 188.453 C 185.934 188.157 185.447 188.143 184.921 188.302 C 184.394 188.46 183.997 188.74 183.738 189.268 C 183.442 189.778 183.427 190.266 183.585 190.792 C 183.743 191.317 184.022 191.713 184.552 191.971 C 188.98 194.35 193.313 195.532 197.547 195.532 C 205.041 195.532 210.856 192.499 216.075 189.769 C 220.525 187.449 224.841 185.202 229.607 185.202 C 234.373 185.202 238.688 187.449 243.138 189.769 C 248.368 192.499 254.173 195.532 261.667 195.532 C 265.901 195.532 270.233 194.351 274.661 191.971 C 275.189 191.713 275.47 191.316 275.629 190.789 C 275.788 190.263 275.773 189.776 275.477 189.269 C 275.218 188.741 274.82 188.46 274.293 188.302 Z M 276.358 209.746 C 276.713 210.453 276.796 211.331 276.586 212.028 C 276.376 212.725 275.821 213.41 275.133 213.803 C 270.601 216.224 266.033 217.482 261.667 217.482 C 253.941 217.482 247.906 214.335 242.676 211.605 C 238.226 209.285 234.141 207.152 229.607 207.152 C 225.073 207.152 220.989 209.285 216.539 211.605 C 211.318 214.335 205.273 217.482 197.547 217.482 C 193.181 217.482 188.604 216.224 184.082 213.803 C 183.392 213.411 182.836 212.727 182.627 212.03 C 182.417 211.333 182.483 210.446 182.856 209.747 C 183.229 209.046 183.932 208.501 184.629 208.292 C 185.326 208.082 186.203 208.167 186.913 208.521 C 190.602 210.501 194.144 211.482 197.547 211.482 C 203.821 211.482 208.816 208.869 213.766 206.289 C 218.556 203.789 223.621 201.152 229.607 201.152 C 235.593 201.152 240.658 203.789 245.448 206.289 C 250.388 208.869 255.393 211.482 261.667 211.482 C 265.071 211.482 268.613 210.51 272.301 208.521 C 273.009 208.167 273.885 208.084 274.582 208.294 C 275.279 208.505 275.964 209.059 276.358 209.746 Z M 274.293 209.252 C 273.767 209.093 273.28 209.107 272.773 209.403 C 268.981 211.433 265.204 212.482 261.667 212.482 C 255.161 212.482 249.926 209.755 244.986 207.175 C 240.196 204.675 235.361 202.152 229.607 202.152 C 223.853 202.152 219.018 204.675 214.228 207.175 C 209.279 209.755 204.053 212.482 197.547 212.482 C 194.01 212.482 190.232 211.423 186.442 209.403 C 185.931 209.107 185.443 209.092 184.917 209.25 C 184.392 209.408 184.015 209.698 183.738 210.217 C 183.461 210.738 183.427 211.216 183.585 211.742 C 183.743 212.267 184.022 212.663 184.552 212.921 C 188.97 215.3 193.313 216.482 197.547 216.482 C 205.041 216.482 210.856 213.449 216.075 210.719 C 220.525 208.399 224.841 206.152 229.607 206.152 C 234.373 206.152 238.688 208.399 243.138 210.719 C 248.368 213.449 254.173 216.482 261.667 216.482 C 265.901 216.482 270.233 215.301 274.661 212.921 C 275.189 212.663 275.47 212.266 275.629 211.739 C 275.788 211.213 275.773 210.726 275.477 210.219 C 275.218 209.691 274.82 209.41 274.293 209.252 Z" style="fill: none;"/>
</svg>