<?xml version="1.0" encoding="UTF-8"?>
<svg id="Calque_1" data-name="Calque 1" xmlns="http://www.w3.org/2000/svg" viewBox="0 0 456.89 291.12">
  <defs>
    <style>
      .cls-1 {
        fill: #0045b4;
      }

      .cls-2 {
        fill: #fff;
      }
    </style>
  </defs>
  <path class="cls-1" d="m395.87,83.07c0,8.73,7.67,15.83,17.1,15.83,1.58,0,2.86,1.28,2.86,2.86v31.78c0,1.58-1.28,2.86-2.86,2.86-9.43,0-17.1,7.1-17.1,15.82s7.67,15.83,17.1,15.83c1.58,0,2.86,1.28,2.86,2.86v31.78c0,1.58-1.28,2.86-2.86,2.86-9.43,0-17.1,7.1-17.1,15.82s7.67,15.83,17.1,15.83c1.58,0,2.86,1.28,2.86,2.86v31.78c0,1.58-1.28,2.86-2.86,2.86h-31.77c-1.58,0-2.86-1.28-2.86-2.86,0-9.44-7.1-17.11-15.83-17.11s-15.83,7.67-15.83,17.11c0,1.58-1.28,2.86-2.86,2.86h-31.77c-1.58,0-2.86-1.28-2.86-2.86,0-9.44-7.1-17.11-15.83-17.11s-15.83,7.67-15.83,17.11c0,1.58-1.28,2.86-2.86,2.86h-31.77c-1.58,0-2.86-1.28-2.86-2.86,0-9.44-7.1-17.11-15.83-17.11s-15.83,7.67-15.83,17.11c0,1.58-1.28,2.86-2.86,2.86h-31.77c-1.58,0-2.86-1.28-2.86-2.86,0-9.44-7.1-17.11-15.83-17.11s-15.83,7.67-15.83,17.11c0,1.58-1.28,2.86-2.86,2.86h-31.77c-1.58,0-2.86-1.28-2.86-2.86,0-9.44-7.1-17.11-15.83-17.11s-15.83,7.67-15.83,17.11c0,1.58-1.28,2.86-2.86,2.86h-31.77c-.07,0-.14-.02-.21-.02s-.13.02-.2.02c-1.58,0-2.86-1.28-2.86-2.86v-31.78c0-1.58,1.28-2.86,2.86-2.86,9.43,0,17.1-7.1,17.1-15.83s-7.67-15.82-17.1-15.82c-1.58,0-2.86-1.28-2.86-2.86v-31.78c0-1.58,1.28-2.86,2.86-2.86,9.43,0,17.1-7.1,17.1-15.83s-7.67-15.82-17.1-15.82c-1.58,0-2.86-1.28-2.86-2.86v-31.78c0-1.58,1.28-2.86,2.86-2.86,9.43,0,17.1-7.1,17.1-15.83s-7.67-15.82-17.1-15.82c-1.58,0-2.86-1.28-2.86-2.86v-31.78c0-1.58,1.28-2.86,2.86-2.86h31.78c1.57,0,2.86,1.28,2.86,2.86,0,9.43,7.1,17.1,15.82,17.1s15.83-7.67,15.83-17.1c0-1.58,1.28-2.86,2.86-2.86h31.78c1.57,0,2.86,1.28,2.86,2.86,0,9.43,7.1,17.1,15.82,17.1s15.83-7.67,15.83-17.1c0-1.58,1.28-2.86,2.86-2.86h31.78c1.58,0,2.86,1.28,2.86,2.86,0,9.43,7.1,17.1,15.82,17.1s15.83-7.67,15.83-17.1c0-1.58,1.28-2.86,2.86-2.86h31.78c1.58,0,2.86,1.28,2.86,2.86,0,9.43,7.1,17.1,15.82,17.1s15.83-7.67,15.83-17.1c0-1.58,1.28-2.86,2.86-2.86h31.78c1.58,0,2.86,1.28,2.86,2.86,0,9.43,7.1,17.1,15.82,17.1s15.83-7.67,15.83-17.1c0-1.58,1.28-2.86,2.86-2.86h31.78c.07,0,.13.02.2.02s.13-.02.2-.02c1.58,0,2.86,1.28,2.86,2.86v31.78c0,1.58-1.28,2.86-2.86,2.86-9.43,0-17.1,7.1-17.1,15.82Z"/>
  <rect class="cls-2" x="67.03" y="68.57" width="313.96" height="168.62"/>
  <g>
    <path class="cls-1" d="m243.28,98.66c-1.17-1.12-3.02-1.12-4.18.01-.69.67-16.9,16.66-16.9,29.35,0,11.85,9.62,18.05,19.12,18.05s19.12-6.2,19.12-18.05c0-12.7-16.45-28.69-17.15-29.36Zm-1.97,41.41c-10.35,0-13.12-7.57-13.12-12.05,0-7.27,8.09-17.56,13.02-22.9,4.99,5.33,13.21,15.62,13.21,22.9,0,4.47-2.76,12.05-13.12,12.05Z"/>
    <path class="cls-1" d="m243.28,156.33c-1.17-1.12-3.02-1.12-4.18.01-.69.67-16.9,16.66-16.9,29.35,0,11.85,9.62,18.05,19.12,18.05s19.12-6.2,19.12-18.05c0-12.7-16.45-28.69-17.15-29.36Zm-1.97,41.41c-10.35,0-13.12-7.57-13.12-12.05,0-7.27,8.09-17.56,13.02-22.9,4.99,5.33,13.21,15.64,13.21,22.9,0,4.47-2.76,12.05-13.12,12.05Z"/>
    <path class="cls-1" d="m101.75,143.92h16.51c1.63,0,3.3-.2,5-.61,1.7-.41,3.26-1.11,4.67-2.1,1.42-.99,2.56-2.35,3.42-4.09.86-1.74,1.29-3.92,1.29-6.54,0-2.41-.47-4.42-1.42-6.03-.95-1.61-2.15-2.89-3.61-3.84-.96-.62-1.97-1.11-3.02-1.49.09-.04.19-.07.28-.12,1.78-.9,3.14-2.14,4.06-3.71.92-1.57,1.39-3.32,1.39-5.25,0-3.7-1.02-6.51-3.06-8.45-2.04-1.93-5.04-2.9-8.99-2.9h-16.51c-.9,0-1.68.31-2.32.94-.65.62-.97,1.41-.97,2.35v38.56c0,.95.32,1.73.97,2.35.64.62,1.42.94,2.32.94Zm21.86-7.96c-1.38,1.18-3.18,1.77-5.42,1.77h-12.77v-14.18h12.38c1.2,0,2.41.17,3.61.52,1.2.34,2.21,1.01,3.03,2,.82.99,1.23,2.49,1.23,4.51,0,2.41-.69,4.2-2.06,5.38Zm-1.87-29.34c1.07,1.01,1.61,2.53,1.61,4.55s-.59,3.47-1.77,4.48c-1.18,1.01-2.55,1.54-4.09,1.58h-12.06v-12.12h11.93c1.85,0,3.31.51,4.38,1.52Z"/>
    <path class="cls-1" d="m144.56,143.92h22.31c.9,0,1.67-.29,2.29-.87.62-.58.93-1.32.93-2.22,0-.82-.31-1.54-.93-2.16-.62-.62-1.39-.94-2.29-.94h-18.83v-13.8h15.93c.9,0,1.67-.28,2.29-.84.62-.56.94-1.29.94-2.19s-.31-1.72-.94-2.32c-.62-.6-1.39-.9-2.29-.9h-15.93v-12.7h18.83c.9,0,1.67-.28,2.29-.84.62-.56.93-1.29.93-2.19s-.31-1.65-.93-2.26c-.62-.6-1.39-.9-2.29-.9h-22.31c-.9,0-1.68.31-2.32.94-.65.62-.97,1.41-.97,2.35v38.56c0,.95.32,1.73.97,2.35.64.62,1.42.94,2.32.94Z"/>
    <path class="cls-1" d="m209.84,135.64c-.75-.11-1.51.03-2.29.42-1.25.69-2.57,1.2-3.96,1.55-1.4.34-2.83.52-4.29.52-2.28,0-4.4-.35-6.35-1.06-1.96-.71-3.65-1.78-5.09-3.22-1.44-1.44-2.57-3.2-3.38-5.29-.82-2.08-1.22-4.48-1.22-7.19,0-2.45.38-4.68,1.13-6.71.75-2.02,1.84-3.77,3.26-5.25s3.1-2.62,5.06-3.42c1.96-.79,4.16-1.19,6.61-1.19,1.55,0,3.01.19,4.38.58,1.38.39,2.69.9,3.93,1.55.73.39,1.47.54,2.22.45.75-.09,1.37-.45,1.84-1.1.64-.82.89-1.72.74-2.71-.15-.99-.7-1.72-1.64-2.19-1.68-.94-3.49-1.68-5.45-2.19-1.96-.52-3.97-.77-6.03-.77-3.31,0-6.36.57-9.16,1.71-2.79,1.14-5.23,2.73-7.32,4.77-2.08,2.04-3.7,4.47-4.84,7.29-1.14,2.82-1.71,5.88-1.71,9.19,0,3.7.61,6.99,1.84,9.87,1.23,2.88,2.91,5.31,5.06,7.29,2.15,1.98,4.6,3.48,7.35,4.51,2.75,1.03,5.67,1.55,8.77,1.55,1.38,0,2.73-.13,4.06-.39,1.33-.26,2.64-.6,3.93-1.03,1.29-.43,2.47-.94,3.55-1.55.9-.47,1.45-1.17,1.64-2.1.19-.92-.08-1.84-.81-2.74-.47-.65-1.09-1.02-1.84-1.13Z"/>
    <path class="cls-1" d="m309.29,98.73c-1.08,0-1.96.49-2.64,1.48l-15.34,22.8-14.97-22.8c-.3-.47-.73-.84-1.29-1.1s-1.1-.39-1.61-.39c-.9,0-1.69.32-2.35.97-.67.65-1,1.42-1,2.32v38.62c0,.95.29,1.73.87,2.35.58.62,1.32.94,2.22.94s1.71-.31,2.29-.94c.58-.62.87-1.41.87-2.35v-29.51l12.12,18.87c.3.39.7.72,1.19,1,.49.28.98.4,1.45.35.52.04,1.01-.07,1.48-.35.47-.28.86-.61,1.16-1l12.12-18.46v29.1c0,.95.31,1.73.93,2.35.62.62,1.45.94,2.48.94s1.78-.31,2.39-.94c.6-.62.9-1.41.9-2.35v-38.62c0-.94-.33-1.73-1-2.35-.67-.62-1.43-.94-2.29-.94Z"/>
    <path class="cls-1" d="m327.02,143.92h22.31c.9,0,1.67-.29,2.29-.87.62-.58.93-1.32.93-2.22,0-.82-.31-1.54-.93-2.16-.62-.62-1.39-.94-2.29-.94h-18.83v-13.8h15.93c.9,0,1.67-.28,2.29-.84.62-.56.93-1.29.93-2.19s-.31-1.72-.93-2.32c-.62-.6-1.39-.9-2.29-.9h-15.93v-12.7h18.83c.9,0,1.67-.28,2.29-.84.62-.56.93-1.29.93-2.19s-.31-1.65-.93-2.26c-.62-.6-1.39-.9-2.29-.9h-22.31c-.9,0-1.68.31-2.32.94-.64.62-.97,1.41-.97,2.35v38.56c0,.95.32,1.73.97,2.35.64.62,1.42.94,2.32.94Z"/>
    <path class="cls-1" d="m305.32,156.46c-.86,0-1.57.29-2.13.87-.56.58-.84,1.3-.84,2.16v30.53l-24.89-32.4c-.26-.39-.66-.68-1.19-.87s-1.04-.29-1.51-.29c-.9,0-1.68.3-2.32.9-.64.6-.97,1.4-.97,2.39v38.88c0,.82.27,1.52.81,2.1.54.58,1.26.87,2.16.87s1.57-.29,2.13-.87c.56-.58.84-1.28.84-2.1v-30.44l25.02,32.44c.26.3.63.54,1.13.71.49.17.96.26,1.39.26.95,0,1.73-.31,2.35-.94.62-.62.94-1.41.94-2.35v-38.81c0-.86-.27-1.58-.81-2.16-.54-.58-1.24-.87-2.1-.87Z"/>
    <path class="cls-1" d="m349.33,195.41h-18.83v-13.8h15.93c.9,0,1.67-.28,2.29-.84.62-.56.94-1.29.94-2.19s-.31-1.72-.94-2.32c-.62-.6-1.39-.9-2.29-.9h-15.93v-12.7h18.83c.9,0,1.67-.28,2.29-.84.62-.56.93-1.29.93-2.19s-.31-1.65-.93-2.26c-.62-.6-1.39-.9-2.29-.9h-22.31c-.9,0-1.68.31-2.32.94-.65.62-.97,1.41-.97,2.35v38.56c0,.95.32,1.73.97,2.35.64.62,1.42.94,2.32.94h22.31c.9,0,1.67-.29,2.29-.87.62-.58.93-1.32.93-2.22,0-.82-.31-1.54-.93-2.16-.62-.62-1.39-.94-2.29-.94Z"/>
    <path class="cls-1" d="m203.01,166.79c-4.49,2.41-8.89,3.63-13.05,3.63-7.67,0-13.82-3.21-19.76-6.31-5.75-3-11.7-6.1-18.75-6.1s-13,3.1-18.75,6.1c-5.94,3.1-12.09,6.31-19.76,6.31-4.17,0-8.56-1.22-13.05-3.63-1.46-.78-3.28-.23-4.06,1.23-.78,1.46-.23,3.28,1.23,4.06,5.38,2.88,10.72,4.35,15.89,4.35,9.15,0,16.26-3.71,22.54-6.99,5.34-2.79,10.39-5.42,15.97-5.42s10.63,2.63,15.97,5.42c6.28,3.28,13.39,6.99,22.54,6.99,5.17,0,10.51-1.46,15.89-4.35,1.46-.78,2.01-2.6,1.23-4.06-.78-1.46-2.6-2.01-4.06-1.23Z"/>
    <path class="cls-1" d="m203.01,191.96c-4.49,2.41-8.88,3.63-13.05,3.63-7.67,0-13.82-3.21-19.76-6.31-5.75-3-11.7-6.1-18.75-6.1s-13,3.1-18.75,6.1c-5.94,3.1-12.09,6.31-19.76,6.31-4.17,0-8.56-1.22-13.05-3.63-1.46-.78-3.28-.23-4.06,1.23-.78,1.46-.23,3.28,1.23,4.06,5.38,2.88,10.72,4.35,15.89,4.35,9.15,0,16.26-3.71,22.54-6.99,5.34-2.79,10.39-5.42,15.97-5.42s10.63,2.63,15.97,5.42c6.28,3.28,13.39,6.99,22.54,6.99,5.17,0,10.51-1.46,15.89-4.35,1.46-.78,2.01-2.6,1.23-4.06-.78-1.46-2.6-2.01-4.06-1.23Z"/>
  </g>
</svg>