<svg id="Calque_1" data-name="Calque 1" xmlns="http://www.w3.org/2000/svg" viewBox="0 0 456.89 291.12">
    <defs>
        <style>
            .cls-1{font-family:Quicksand-SemiBold,Quicksand;font-size:29.14px;font-weight:600}.cls-1,.cls-2{fill:#cfe5f8}
        </style>
    </defs>
    <text class="cls-1" transform="rotate(-78.77 159.47 -26.025)"><tspan x="0" y="0">B</tspan></text>
    <text class="cls-1" transform="rotate(-63.64 172.026 -69.982)"><tspan x="0" y="0">E</tspan></text>
    <text class="cls-1" transform="rotate(-48.8 192.219 -134.213)"><tspan x="0" y="0">C</tspan></text>
    <text class="cls-1" transform="rotate(-32.02 235.68 -271.54)"><tspan x="0" y="0">O</tspan></text>
    <text class="cls-1" transform="rotate(-13.11 409.773 -834.313)"><tspan x="0" y="0">M</tspan></text>
    <text class="cls-1" transform="rotate(3.6 -940.506 3610.83)"><tspan x="0" y="0">E</tspan></text>
    <text class="cls-1" transform="rotate(14.7 -141.669 977.337)"><tspan x="0" y="0"> </tspan></text>
    <text class="cls-1" transform="rotate(27.86 -14.325 545.396)"><tspan x="0" y="0">O</tspan></text>
    <text class="cls-1" transform="rotate(45.68 40.547 365.87)"><tspan x="0" y="0">N</tspan></text>
    <text class="cls-1" transform="rotate(61.53 62.465 292.3)"><tspan x="0" y="0">E</tspan></text>
    <text class="cls-1" transform="rotate(72.66 71.022 259.907)"><tspan x="0" y="0"> </tspan></text>
    <text class="cls-1" transform="rotate(81.43 78.137 237.084)"><tspan x="0" y="0">•</tspan></text>
    <text class="cls-1" transform="rotate(90.93 84.104 217.139)"><tspan x="0" y="0"> </tspan></text>
    <text class="cls-1" transform="rotate(101.95 91.985 196.098)"><tspan x="0" y="0">B</tspan></text>
    <text class="cls-1" transform="rotate(117.1 98.064 174.648)"><tspan x="0" y="0">E</tspan></text>
    <text class="cls-1" transform="rotate(131.92 104.02 156.226)"><tspan x="0" y="0">C</tspan></text>
    <text class="cls-1" transform="rotate(148.7 110.414 137.804)"><tspan x="0" y="0">O</tspan></text>
    <text class="cls-1" transform="rotate(167.63 116.64 119.076)"><tspan x="0" y="0">M</tspan></text>
    <text class="cls-1" transform="rotate(-175.67 119.6 103.182)"><tspan x="0" y="0">E</tspan></text>
    <text class="cls-1" transform="rotate(-164.57 120.735 92.15)"><tspan x="0" y="0"> </tspan></text>
    <text class="cls-1" transform="rotate(-151.42 128.273 79.677)"><tspan x="0" y="0">O</tspan></text>
    <text class="cls-1" transform="rotate(-133.59 133.821 60.666)"><tspan x="0" y="0">N</tspan></text>
    <text class="cls-1" transform="rotate(-117.75 138.44 40.871)"><tspan x="0" y="0">E</tspan></text>
    <text class="cls-1" transform="rotate(-106.61 141.057 23.75)"><tspan x="0" y="0"> </tspan></text>
    <text class="cls-1" transform="rotate(-97.85 145.8 10.036)"><tspan x="0" y="0">•</tspan></text>
    <text class="cls-1" transform="rotate(-89.07 150.19 -6.568)"><tspan x="0" y="0"> </tspan></text>
    <path class="cls-2" d="M230.08 91.47a2.52 2.52 0 0 0-3.48 0c-.28.28-3.72 3.67-7.13 8.29a55.85 55.85 0 0 0-2.95 4.43c-2.26 3.78-4 7.92-4 11.71s1.15 6.8 3.01 9.17c1.12 1.41 2.47 2.56 3.99 3.46 2.66 1.59 5.79 2.4 8.92 2.4 7.91 0 15.92-5.16 15.92-15.03 0-10.56-13.69-23.88-14.28-24.44Zm-1.64 34.47c-1.96 0-3.58-.32-4.93-.87-1.77-.72-3.06-1.81-3.99-3.05-1.47-1.98-2-4.34-2-6.12 0-2.06.78-4.42 1.98-6.81.83-1.66 1.86-3.32 2.96-4.91 1.96-2.86 4.17-5.46 5.9-7.34 4.15 4.44 11 13 11 19.06 0 3.73-2.3 10.03-10.92 10.03ZM271.37 148.22c-3.74 2.01-7.4 3.02-10.87 3.02-6.39 0-11.51-2.67-16.45-5.25-4.79-2.5-9.74-5.08-15.61-5.08s-10.82 2.58-15.61 5.08c-4.95 2.58-10.06 5.25-16.45 5.25-3.47 0-7.12-1.02-10.87-3.02a2.5 2.5 0 0 0-3.38 1.02c-.65 1.22-.2 2.73 1.02 3.38 4.48 2.4 8.93 3.62 13.23 3.62 7.61 0 13.54-3.09 18.76-5.82 4.45-2.32 8.65-4.51 13.3-4.51s8.85 2.19 13.3 4.51c5.23 2.73 11.15 5.82 18.76 5.82 4.3 0 8.75-1.22 13.23-3.62a2.495 2.495 0 0 0 1.02-3.38 2.5 2.5 0 0 0-3.38-1.02ZM271.37 169.17c-3.74 2.01-7.4 3.02-10.87 3.02-6.39 0-11.51-2.67-16.45-5.25-4.79-2.5-9.74-5.08-15.61-5.08s-10.82 2.58-15.61 5.08c-4.95 2.58-10.06 5.25-16.45 5.25-3.47 0-7.13-1.02-10.87-3.02-1.22-.65-2.73-.2-3.38 1.02-.65 1.22-.2 2.73 1.02 3.38 4.47 2.4 8.93 3.62 13.23 3.62 7.61 0 13.54-3.09 18.76-5.82 4.45-2.32 8.65-4.51 13.3-4.51s8.85 2.19 13.3 4.51c5.23 2.73 11.15 5.82 18.76 5.82 4.3 0 8.75-1.22 13.23-3.62a2.495 2.495 0 0 0 1.02-3.38 2.5 2.5 0 0 0-3.38-1.02Z"/>
</svg>
