<?xml version="1.0" encoding="UTF-8"?>
<svg id="Calque_1" data-name="Calque 1" xmlns="http://www.w3.org/2000/svg" xmlns:xlink="http://www.w3.org/1999/xlink" viewBox="0 0 456.89 291.12">
  <defs>
    <style>
      .cls-1 {
        fill: none;
      }

      .cls-2 {
        clip-path: url(#clippath);
      }

      .cls-3 {
        fill: #0045b4;
      }
    </style>
    <clipPath id="clippath">
      <rect class="cls-1" x=".79" y="-318.64" width="455.31" height="297.64"/>
    </clipPath>
  </defs>
  <g class="cls-2">
    <image width="3456" height="4557" transform="translate(-257.1 -539.64) scale(.21 .12)" xlink:href="../../../OCEANS DAY/01_PHOTOS/pexels-kristoÌf-sasskovan-8547895.jpg"/>
  </g>
  <g>
    <path class="cls-3" d="m231.34,53.18c-1.72-1.65-4.45-1.65-6.15.01-.5.5-6.58,6.49-12.6,14.66-1.8,2.44-3.58,5.09-5.21,7.83-3.99,6.68-7.07,14.01-7.07,20.71s2.03,12.03,5.31,16.21c1.97,2.49,4.37,4.53,7.05,6.12,4.7,2.81,10.23,4.24,15.77,4.24,13.99,0,28.15-9.13,28.15-26.57,0-18.68-24.22-42.24-25.25-43.22Zm-2.9,60.96c-3.46,0-6.33-.57-8.72-1.53-3.14-1.27-5.42-3.19-7.05-5.39-2.61-3.5-3.53-7.67-3.53-10.82,0-3.65,1.38-7.82,3.5-12.04,1.47-2.93,3.28-5.87,5.23-8.69,3.47-5.05,7.38-9.66,10.44-12.98,7.35,7.85,19.45,22.99,19.45,33.71,0,6.6-4.06,17.74-19.31,17.74Z"/>
    <path class="cls-3" d="m304.36,153.54c-6.62,3.55-13.08,5.35-19.22,5.35-11.3,0-20.35-4.72-29.1-9.29-8.46-4.42-17.22-8.98-27.6-8.98s-19.14,4.57-27.6,8.98c-8.75,4.57-17.8,9.29-29.1,9.29-6.13,0-12.6-1.8-19.22-5.35-2.15-1.15-4.83-.34-5.98,1.8-1.15,2.15-.35,4.83,1.8,5.98,7.91,4.25,15.78,6.4,23.39,6.4,13.46,0,23.94-5.47,33.18-10.29,7.87-4.1,15.3-7.98,23.51-7.98s15.65,3.88,23.52,7.98c9.24,4.82,19.72,10.29,33.18,10.29,7.61,0,15.48-2.15,23.39-6.4,2.15-1.15,2.96-3.83,1.8-5.98-1.15-2.15-3.83-2.96-5.98-1.8Z"/>
    <path class="cls-3" d="m304.36,190.59c-6.61,3.55-13.08,5.35-19.22,5.35-11.3,0-20.35-4.72-29.1-9.29-8.46-4.42-17.22-8.98-27.6-8.98s-19.14,4.57-27.6,8.98c-8.75,4.57-17.8,9.29-29.1,9.29-6.14,0-12.6-1.8-19.22-5.35-2.15-1.15-4.83-.35-5.98,1.8-1.15,2.15-.35,4.83,1.8,5.98,7.91,4.25,15.78,6.4,23.39,6.4,13.46,0,23.94-5.47,33.18-10.29,7.87-4.1,15.3-7.98,23.51-7.98s15.65,3.88,23.52,7.98c9.24,4.82,19.72,10.29,33.18,10.29,7.61,0,15.48-2.15,23.39-6.4,2.15-1.15,2.96-3.83,1.8-5.98-1.15-2.15-3.83-2.96-5.98-1.8Z"/>
  </g>
</svg>