<?xml version="1.0" encoding="UTF-8"?>
<svg id="Calque_1" data-name="Calque 1" xmlns="http://www.w3.org/2000/svg" viewBox="0 0 456.89 291.12">
  <defs>
    <style>
      .cls-1, .cls-2 {
        fill: #0045b4;
      }

      .cls-2 {
        font-family: Quicksand-SemiBold, Quicksand;
        font-size: 29.14px;
        font-weight: 600;
      }
    </style>
  </defs>
  <text class="cls-2" transform="translate(155.1 135.46) rotate(-78.77)"><tspan x="0" y="0">B</tspan></text>
  <text class="cls-2" transform="translate(159.5 115.23) rotate(-63.64)"><tspan x="0" y="0">E</tspan></text>
  <text class="cls-2" transform="translate(167.75 98.82) rotate(-48.8)"><tspan x="0" y="0">C</tspan></text>
  <text class="cls-2" transform="translate(180.99 83.65) rotate(-32.02)"><tspan x="0" y="0">O</tspan></text>
  <text class="cls-2" transform="translate(201.07 71.2) rotate(-13.11)"><tspan x="0" y="0">M</tspan></text>
  <text class="cls-2" transform="translate(226.03 66.18) rotate(3.6)"><tspan x="0" y="0">E</tspan></text>
  <text class="cls-2" transform="translate(244.53 67.94) rotate(14.7)"><tspan x="0" y="0"> </tspan></text>
  <text class="cls-2" transform="translate(254.37 69.91) rotate(27.86)"><tspan x="0" y="0">O</tspan></text>
  <text class="cls-2" transform="translate(275.14 81.24) rotate(45.68)"><tspan x="0" y="0">N</tspan></text>
  <text class="cls-2" transform="translate(290.79 98.05) rotate(61.53)"><tspan x="0" y="0">E</tspan></text>
  <text class="cls-2" transform="translate(299.11 114.65) rotate(72.66)"><tspan x="0" y="0"> </tspan></text>
  <text class="cls-2" transform="translate(302.08 124.49) rotate(81.43)"><tspan x="0" y="0">•</tspan></text>
  <text class="cls-2" transform="translate(303.73 136.57) rotate(90.93)"><tspan x="0" y="0"> </tspan></text>
  <text class="cls-2" transform="translate(304.04 146.71) rotate(101.95)"><tspan x="0" y="0">B</tspan></text>
  <text class="cls-2" transform="translate(299.37 166.91) rotate(117.1)"><tspan x="0" y="0">E</tspan></text>
  <text class="cls-2" transform="translate(290.92 183.2) rotate(131.92)"><tspan x="0" y="0">C</tspan></text>
  <text class="cls-2" transform="translate(277.5 198.19) rotate(148.7)"><tspan x="0" y="0">O</tspan></text>
  <text class="cls-2" transform="translate(257.24 210.4) rotate(167.63)"><tspan x="0" y="0">M</tspan></text>
  <text class="cls-2" transform="translate(232.23 215.1) rotate(-175.67)"><tspan x="0" y="0">E</tspan></text>
  <text class="cls-2" transform="translate(213.75 213.1) rotate(-164.57)"><tspan x="0" y="0"> </tspan></text>
  <text class="cls-2" transform="translate(203.96 211.01) rotate(-151.42)"><tspan x="0" y="0">O</tspan></text>
  <text class="cls-2" transform="translate(183.31 199.42) rotate(-133.59)"><tspan x="0" y="0">N</tspan></text>
  <text class="cls-2" transform="translate(167.89 182.42) rotate(-117.75)"><tspan x="0" y="0">E</tspan></text>
  <text class="cls-2" transform="translate(159.77 165.71) rotate(-106.61)"><tspan x="0" y="0"> </tspan></text>
  <text class="cls-2" transform="translate(156.93 155.84) rotate(-97.85)"><tspan x="0" y="0">•</tspan></text>
  <text class="cls-2" transform="translate(155.48 143.71) rotate(-89.07)"><tspan x="0" y="0"> </tspan></text>
  <path class="cls-1" d="m231.24,91.47c-.97-.93-2.51-.93-3.48,0-.28.28-3.72,3.67-7.13,8.29-1.02,1.38-2.02,2.88-2.95,4.43-2.26,3.78-4,7.92-4,11.71s1.15,6.8,3.01,9.17c1.12,1.41,2.47,2.56,3.99,3.46,2.66,1.59,5.79,2.4,8.92,2.4,7.91,0,15.92-5.16,15.92-15.03,0-10.56-13.69-23.88-14.28-24.44Zm-1.64,34.47c-1.96,0-3.58-.32-4.93-.87-1.77-.72-3.06-1.81-3.99-3.05-1.47-1.98-2-4.34-2-6.12,0-2.06.78-4.42,1.98-6.81.83-1.66,1.86-3.32,2.96-4.91,1.96-2.86,4.17-5.46,5.9-7.34,4.15,4.44,11,13,11,19.06,0,3.73-2.3,10.03-10.92,10.03Z"/>
  <path class="cls-1" d="m272.53,148.22c-3.74,2.01-7.4,3.02-10.87,3.02-6.39,0-11.51-2.67-16.45-5.25-4.79-2.5-9.74-5.08-15.61-5.08s-10.82,2.58-15.61,5.08c-4.95,2.58-10.06,5.25-16.45,5.25-3.47,0-7.12-1.02-10.87-3.02-1.22-.65-2.73-.19-3.38,1.02-.65,1.22-.2,2.73,1.02,3.38,4.48,2.4,8.93,3.62,13.23,3.62,7.61,0,13.54-3.09,18.76-5.82,4.45-2.32,8.65-4.51,13.3-4.51s8.85,2.19,13.3,4.51c5.23,2.73,11.15,5.82,18.76,5.82,4.3,0,8.75-1.22,13.23-3.62,1.22-.65,1.67-2.17,1.02-3.38-.65-1.21-2.16-1.67-3.38-1.02Z"/>
  <path class="cls-1" d="m272.53,169.17c-3.74,2.01-7.4,3.02-10.87,3.02-6.39,0-11.51-2.67-16.45-5.25-4.79-2.5-9.74-5.08-15.61-5.08s-10.82,2.58-15.61,5.08c-4.95,2.58-10.06,5.25-16.45,5.25-3.47,0-7.13-1.02-10.87-3.02-1.22-.65-2.73-.2-3.38,1.02-.65,1.22-.2,2.73,1.02,3.38,4.47,2.4,8.93,3.62,13.23,3.62,7.61,0,13.54-3.09,18.76-5.82,4.45-2.32,8.65-4.51,13.3-4.51s8.85,2.19,13.3,4.51c5.23,2.73,11.15,5.82,18.76,5.82,4.3,0,8.75-1.22,13.23-3.62,1.22-.65,1.67-2.17,1.02-3.38-.65-1.21-2.16-1.67-3.38-1.02Z"/>
</svg>