<?xml version="1.0" encoding="UTF-8"?>
<svg id="Calque_1" data-name="Calque 1" xmlns="http://www.w3.org/2000/svg" xmlns:xlink="http://www.w3.org/1999/xlink" viewBox="0 0 456.89 291.12">
  <defs>
    <style>
      .cls-1 {
        fill: none;
      }

      .cls-2 {
        clip-path: url(#clippath);
      }

      .cls-3 {
        fill: #cfe5f8;
      }
    </style>
    <clipPath id="clippath">
      <rect class="cls-1" x=".79" y="341.61" width="455.31" height="297.64"/>
    </clipPath>
  </defs>
  <g>
    <path class="cls-3" d="m131.21,118.54c-.95-1.61-2.15-2.89-3.61-3.83-.97-.62-1.98-1.11-3.02-1.5.09-.04.19-.07.28-.11,1.78-.91,3.13-2.14,4.06-3.71.92-1.57,1.38-3.32,1.38-5.26,0-3.69-1.02-6.51-3.06-8.44-2.04-1.94-5.04-2.9-8.99-2.9h-16.51c-.9,0-1.67.31-2.32.93-.64.62-.97,1.41-.97,2.35v38.56c0,.95.33,1.73.97,2.35.65.63,1.42.94,2.32.94h16.51c1.63,0,3.3-.2,4.99-.61,1.7-.41,3.26-1.11,4.68-2.1s2.56-2.35,3.42-4.09c.86-1.74,1.29-3.92,1.29-6.55,0-2.4-.48-4.41-1.42-6.03Zm-25.79-19.44h11.92c1.85,0,3.31.51,4.39,1.52,1.07,1.01,1.61,2.53,1.61,4.55s-.59,3.47-1.77,4.48c-1.18,1.01-2.55,1.53-4.1,1.58h-12.05v-12.13Zm18.18,30.86c-1.38,1.18-3.18,1.77-5.42,1.77h-12.76v-14.18h12.38c1.2,0,2.4.17,3.61.51,1.2.35,2.21,1.01,3.03,2,.81.99,1.22,2.49,1.22,4.51,0,2.41-.69,4.21-2.06,5.39Z"/>
    <path class="cls-3" d="m142.23,136.98c-.64-.62-.97-1.4-.97-2.35v-38.56c0-.94.33-1.73.97-2.35.65-.62,1.42-.93,2.32-.93h22.31c.9,0,1.67.3,2.29.9.62.6.94,1.35.94,2.26s-.32,1.63-.94,2.19-1.39.84-2.29.84h-18.82v12.7h15.92c.9,0,1.67.3,2.29.9.62.6.93,1.38.93,2.32s-.31,1.64-.93,2.19c-.62.56-1.39.84-2.29.84h-15.92v13.8h18.82c.9,0,1.67.31,2.29.93.62.63.94,1.35.94,2.17,0,.9-.32,1.64-.94,2.22-.62.58-1.39.87-2.29.87h-22.31c-.9,0-1.67-.31-2.32-.94Z"/>
    <path class="cls-3" d="m95.81,187.18c.78-1.46,2.6-2.01,4.06-1.22,4.5,2.41,8.89,3.63,13.05,3.63,7.68,0,13.83-3.21,19.77-6.31,5.75-3,11.69-6.1,18.75-6.1s13,3.1,18.75,6.1c5.94,3.1,12.09,6.31,19.76,6.31,4.17,0,8.56-1.22,13.05-3.63,1.46-.79,3.28-.24,4.07,1.22.78,1.46.23,3.28-1.23,4.06-5.37,2.89-10.72,4.35-15.89,4.35-9.14,0-16.26-3.71-22.54-6.99-5.34-2.79-10.39-5.42-15.97-5.42s-10.63,2.63-15.98,5.42c-6.27,3.28-13.39,6.99-22.54,6.99-5.16,0-10.51-1.46-15.88-4.35-1.46-.78-2.01-2.6-1.23-4.06Z"/>
    <path class="cls-3" d="m95.81,162.02c.78-1.46,2.6-2.01,4.06-1.23,4.5,2.41,8.89,3.63,13.05,3.63,7.68,0,13.83-3.2,19.77-6.31,5.75-2.99,11.69-6.1,18.75-6.1s13,3.11,18.75,6.11c5.94,3.1,12.09,6.3,19.76,6.3,4.17,0,8.56-1.22,13.05-3.63,1.46-.78,3.28-.23,4.07,1.22.78,1.46.23,3.28-1.23,4.07-5.38,2.88-10.72,4.34-15.89,4.34-9.14,0-16.26-3.71-22.54-6.99-5.34-2.78-10.39-5.42-15.97-5.42s-10.63,2.64-15.98,5.42c-6.27,3.28-13.39,6.99-22.54,6.99-5.16,0-10.51-1.46-15.88-4.34-1.46-.79-2.01-2.6-1.23-4.06Z"/>
    <path class="cls-3" d="m178.11,125.22c-1.22-2.88-1.83-6.17-1.83-9.87,0-3.31.56-6.37,1.7-9.19,1.14-2.81,2.75-5.24,4.84-7.28,2.08-2.04,4.52-3.63,7.32-4.77,2.79-1.14,5.84-1.71,9.15-1.71,2.07,0,4.08.26,6.03.77,1.96.52,3.77,1.25,5.45,2.2.95.47,1.49,1.2,1.65,2.19.14.99-.1,1.89-.75,2.71-.47.64-1.08,1.01-1.83,1.09-.76.09-1.5-.06-2.23-.45-1.25-.64-2.56-1.16-3.93-1.55-1.38-.38-2.84-.58-4.39-.58-2.45,0-4.65.4-6.61,1.2-1.95.79-3.64,1.93-5.06,3.41-1.42,1.49-2.5,3.24-3.25,5.26-.76,2.02-1.13,4.25-1.13,6.7,0,2.71.41,5.11,1.22,7.19.82,2.09,1.95,3.85,3.39,5.29,1.44,1.44,3.14,2.51,5.09,3.22,1.96.71,4.07,1.07,6.35,1.07,1.47,0,2.89-.17,4.29-.52,1.4-.34,2.72-.86,3.97-1.55.77-.38,1.53-.52,2.29-.42.75.11,1.36.49,1.83,1.13.73.91,1,1.82.81,2.74-.19.93-.74,1.63-1.64,2.1-1.08.6-2.26,1.12-3.55,1.55s-2.6.77-3.93,1.03c-1.34.26-2.69.38-4.07.38-3.09,0-6.02-.51-8.77-1.54-2.75-1.03-5.2-2.54-7.35-4.52-2.15-1.97-3.83-4.4-5.06-7.28Z"/>
    <path class="cls-3" d="m243.28,150.32c-1.17-1.12-3.02-1.12-4.18.02-.69.67-16.9,16.66-16.9,29.34,0,11.85,9.61,18.05,19.11,18.05s19.12-6.2,19.12-18.05c0-12.69-16.45-28.68-17.15-29.36Zm-1.97,41.41c-10.35,0-13.11-7.57-13.11-12.05,0-7.26,8.09-17.56,13.01-22.9,5,5.34,13.22,15.64,13.22,22.9,0,4.48-2.76,12.05-13.12,12.05Z"/>
    <path class="cls-3" d="m243.28,92.65c-1.17-1.12-3.02-1.12-4.18.02-.69.67-16.9,16.66-16.9,29.34,0,11.85,9.61,18.05,19.11,18.05s19.12-6.2,19.12-18.05c0-12.69-16.45-28.68-17.15-29.36Zm-1.97,41.41c-10.35,0-13.11-7.57-13.11-12.05,0-7.27,8.09-17.56,13.02-22.9,4.99,5.33,13.21,15.62,13.21,22.9,0,4.48-2.76,12.05-13.12,12.05Z"/>
    <path class="cls-3" d="m307.41,151.33c.54.58.81,1.3.81,2.16v38.81c0,.95-.32,1.73-.94,2.36-.62.62-1.41.93-2.35.93-.43,0-.9-.08-1.39-.26-.49-.17-.87-.41-1.13-.71l-25.01-32.44v30.44c0,.82-.28,1.52-.84,2.1s-1.27.87-2.13.87-1.62-.29-2.16-.87-.81-1.28-.81-2.1v-38.87c0-.99.33-1.79.97-2.39.65-.6,1.42-.9,2.32-.9.47,0,.98.09,1.52.29.53.19.93.48,1.19.87l24.89,32.4v-30.53c0-.86.28-1.58.84-2.16.55-.58,1.26-.87,2.12-.87s1.56.29,2.1.87Z"/>
    <path class="cls-3" d="m270.96,136.98c-.58-.62-.87-1.4-.87-2.35v-38.62c0-.9.33-1.68,1-2.32.66-.65,1.45-.97,2.35-.97.52,0,1.05.13,1.61.39s.99.62,1.29,1.09l14.97,22.81,15.34-22.81c.68-.98,1.56-1.48,2.64-1.48.86,0,1.62.31,2.29.94.66.62,1,1.41,1,2.35v38.62c0,.95-.3,1.73-.91,2.35-.6.63-1.39.94-2.38.94s-1.86-.31-2.48-.94c-.63-.62-.94-1.4-.94-2.35v-29.1l-12.12,18.46c-.3.39-.69.72-1.16,1-.47.28-.97.4-1.48.36-.48.04-.96-.08-1.45-.36-.5-.28-.9-.61-1.2-1l-12.12-18.87v29.51c0,.95-.29,1.73-.87,2.35-.58.63-1.34.94-2.29.94-.9,0-1.64-.31-2.22-.94Z"/>
    <path class="cls-3" d="m324.7,194.66c-.65-.63-.97-1.41-.97-2.36v-38.55c0-.95.32-1.73.97-2.36.64-.62,1.42-.93,2.32-.93h22.31c.9,0,1.66.3,2.29.9.62.6.93,1.35.93,2.26s-.31,1.63-.93,2.19c-.63.56-1.39.84-2.29.84h-18.83v12.7h15.93c.9,0,1.66.3,2.29.9.62.6.93,1.38.93,2.32s-.31,1.64-.93,2.19c-.63.56-1.39.84-2.29.84h-15.93v13.8h18.83c.9,0,1.66.31,2.29.94.62.62.93,1.34.93,2.16,0,.9-.31,1.64-.93,2.22-.63.58-1.39.87-2.29.87h-22.31c-.9,0-1.68-.31-2.32-.93Z"/>
    <path class="cls-3" d="m324.7,136.98c-.65-.62-.97-1.4-.97-2.35v-38.56c0-.94.32-1.73.97-2.35.64-.62,1.42-.93,2.32-.93h22.31c.9,0,1.66.3,2.29.9.62.6.93,1.35.93,2.26s-.31,1.63-.93,2.19c-.63.56-1.39.84-2.29.84h-18.83v12.7h15.93c.9,0,1.66.3,2.29.9.62.6.93,1.38.93,2.32s-.31,1.64-.93,2.19c-.63.56-1.39.84-2.29.84h-15.93v13.8h18.83c.9,0,1.66.31,2.29.93.62.63.93,1.35.93,2.17,0,.9-.31,1.64-.93,2.22-.63.58-1.39.87-2.29.87h-22.31c-.9,0-1.68-.31-2.32-.94Z"/>
    <path class="cls-3" d="m412.97,61.25c1.58,0,2.86-1.28,2.86-2.86v-31.78c0-1.58-1.28-2.86-2.86-2.86-.07,0-.13.02-.2.02s-.13-.02-.2-.02h-31.78c-1.58,0-2.86,1.28-2.86,2.86,0,9.43-7.1,17.1-15.83,17.1s-15.82-7.67-15.82-17.1c0-1.58-1.28-2.86-2.86-2.86h-31.78c-1.58,0-2.86,1.28-2.86,2.86,0,9.43-7.1,17.1-15.83,17.1s-15.82-7.67-15.82-17.1c0-1.58-1.28-2.86-2.86-2.86h-31.78c-1.58,0-2.86,1.28-2.86,2.86,0,9.43-7.1,17.1-15.83,17.1s-15.82-7.67-15.82-17.1c0-1.58-1.28-2.86-2.86-2.86h-31.78c-1.58,0-2.86,1.28-2.86,2.86,0,9.43-7.1,17.1-15.83,17.1s-15.82-7.67-15.82-17.1c0-1.58-1.29-2.86-2.86-2.86h-31.78c-1.58,0-2.86,1.28-2.86,2.86,0,9.43-7.1,17.1-15.83,17.1s-15.82-7.67-15.82-17.1c0-1.58-1.29-2.86-2.86-2.86h-31.78c-1.58,0-2.86,1.28-2.86,2.86v31.78c0,1.58,1.28,2.86,2.86,2.86,9.43,0,17.1,7.1,17.1,15.82s-7.67,15.83-17.1,15.83c-1.58,0-2.86,1.28-2.86,2.86v31.78c0,1.58,1.28,2.86,2.86,2.86,9.43,0,17.1,7.1,17.1,15.82s-7.67,15.83-17.1,15.83c-1.58,0-2.86,1.28-2.86,2.86v31.78c0,1.58,1.28,2.86,2.86,2.86,9.43,0,17.1,7.1,17.1,15.82s-7.67,15.83-17.1,15.83c-1.58,0-2.86,1.28-2.86,2.86v31.78c0,1.58,1.28,2.86,2.86,2.86.07,0,.13-.02.2-.02s.14.02.21.02h31.77c1.58,0,2.86-1.28,2.86-2.86,0-9.44,7.1-17.11,15.83-17.11s15.83,7.67,15.83,17.11c0,1.58,1.28,2.86,2.86,2.86h31.77c1.58,0,2.86-1.28,2.86-2.86,0-9.44,7.1-17.11,15.83-17.11s15.83,7.67,15.83,17.11c0,1.58,1.28,2.86,2.86,2.86h31.77c1.58,0,2.86-1.28,2.86-2.86,0-9.44,7.1-17.11,15.83-17.11s15.83,7.67,15.83,17.11c0,1.58,1.28,2.86,2.86,2.86h31.77c1.58,0,2.86-1.28,2.86-2.86,0-9.44,7.1-17.11,15.83-17.11s15.83,7.67,15.83,17.11c0,1.58,1.28,2.86,2.86,2.86h31.77c1.58,0,2.86-1.28,2.86-2.86,0-9.44,7.1-17.11,15.83-17.11s15.83,7.67,15.83,17.11c0,1.58,1.28,2.86,2.86,2.86h31.77c1.58,0,2.86-1.28,2.86-2.86v-31.78c0-1.58-1.28-2.86-2.86-2.86-9.43,0-17.1-7.1-17.1-15.83s7.67-15.82,17.1-15.82c1.58,0,2.86-1.28,2.86-2.86v-31.78c0-1.58-1.28-2.86-2.86-2.86-9.43,0-17.1-7.1-17.1-15.83s7.67-15.82,17.1-15.82c1.58,0,2.86-1.28,2.86-2.86v-31.78c0-1.58-1.28-2.86-2.86-2.86-9.43,0-17.1-7.1-17.1-15.83s7.67-15.82,17.1-15.82Zm-31.99,169.94H67.02V62.57h313.96v168.62Z"/>
  </g>
  <path class="cls-1" d="m131.21,118.54c-.95-1.61-2.15-2.89-3.61-3.83-.97-.62-1.98-1.11-3.02-1.5.09-.04.19-.07.28-.11,1.78-.91,3.13-2.14,4.06-3.71.92-1.57,1.38-3.32,1.38-5.26,0-3.69-1.02-6.51-3.06-8.44-2.04-1.94-5.04-2.9-8.99-2.9h-16.51c-.9,0-1.67.31-2.32.93-.64.62-.97,1.41-.97,2.35v38.56c0,.95.33,1.73.97,2.35.65.63,1.42.94,2.32.94h16.51c1.63,0,3.3-.2,4.99-.61,1.7-.41,3.26-1.11,4.68-2.1s2.56-2.35,3.42-4.09c.86-1.74,1.29-3.92,1.29-6.55,0-2.4-.48-4.41-1.42-6.03Zm-25.79-19.44h11.92c1.85,0,3.31.51,4.39,1.52,1.07,1.01,1.61,2.53,1.61,4.55s-.59,3.47-1.77,4.48c-1.18,1.01-2.55,1.53-4.1,1.58h-12.05v-12.13Zm18.18,30.86c-1.38,1.18-3.18,1.77-5.42,1.77h-12.76v-14.18h12.38c1.2,0,2.4.17,3.61.51,1.2.35,2.21,1.01,3.03,2,.81.99,1.22,2.49,1.22,4.51,0,2.41-.69,4.21-2.06,5.39Z"/>
  <path class="cls-1" d="m142.23,136.98c-.64-.62-.97-1.4-.97-2.35v-38.56c0-.94.33-1.73.97-2.35.65-.62,1.42-.93,2.32-.93h22.31c.9,0,1.67.3,2.29.9.62.6.94,1.35.94,2.26s-.32,1.63-.94,2.19-1.39.84-2.29.84h-18.82v12.7h15.92c.9,0,1.67.3,2.29.9.62.6.93,1.38.93,2.32s-.31,1.64-.93,2.19c-.62.56-1.39.84-2.29.84h-15.92v13.8h18.82c.9,0,1.67.31,2.29.93.62.63.94,1.35.94,2.17,0,.9-.32,1.64-.94,2.22-.62.58-1.39.87-2.29.87h-22.31c-.9,0-1.67-.31-2.32-.94Z"/>
  <path class="cls-1" d="m207.07,187.18c.78,1.46.23,3.28-1.23,4.06-5.37,2.89-10.72,4.35-15.89,4.35-9.14,0-16.26-3.71-22.54-6.99-5.34-2.79-10.39-5.42-15.97-5.42s-10.63,2.63-15.98,5.42c-6.27,3.28-13.39,6.99-22.54,6.99-5.16,0-10.51-1.46-15.88-4.35-1.46-.78-2.01-2.6-1.23-4.06.78-1.46,2.6-2.01,4.06-1.22,4.5,2.41,8.89,3.63,13.05,3.63,7.68,0,13.83-3.21,19.77-6.31,5.75-3,11.69-6.1,18.75-6.1s13,3.1,18.75,6.1c5.94,3.1,12.09,6.31,19.76,6.31,4.17,0,8.56-1.22,13.05-3.63,1.46-.79,3.28-.24,4.07,1.22Z"/>
  <path class="cls-1" d="m207.07,162.01c.78,1.46.23,3.28-1.23,4.07-5.38,2.88-10.72,4.34-15.89,4.34-9.14,0-16.26-3.71-22.54-6.99-5.34-2.78-10.39-5.42-15.97-5.42s-10.63,2.64-15.98,5.42c-6.27,3.28-13.39,6.99-22.54,6.99-5.16,0-10.51-1.46-15.88-4.34-1.46-.79-2.01-2.6-1.23-4.06.78-1.46,2.6-2.01,4.06-1.23,4.5,2.41,8.89,3.63,13.05,3.63,7.68,0,13.83-3.2,19.77-6.31,5.75-2.99,11.69-6.1,18.75-6.1s13,3.11,18.75,6.11c5.94,3.1,12.09,6.3,19.76,6.3,4.17,0,8.56-1.22,13.05-3.63,1.46-.78,3.28-.23,4.07,1.22Z"/>
  <path class="cls-1" d="m211.67,130.76c.73.91,1,1.82.81,2.74-.19.93-.74,1.63-1.64,2.1-1.08.6-2.26,1.12-3.55,1.55s-2.6.77-3.93,1.03c-1.34.26-2.69.38-4.07.38-3.09,0-6.02-.51-8.77-1.54-2.75-1.03-5.2-2.54-7.35-4.52-2.15-1.97-3.83-4.4-5.06-7.28-1.22-2.88-1.83-6.17-1.83-9.87,0-3.31.56-6.37,1.7-9.19,1.14-2.81,2.75-5.24,4.84-7.28,2.08-2.04,4.52-3.63,7.32-4.77,2.79-1.14,5.84-1.71,9.15-1.71,2.07,0,4.08.26,6.03.77,1.96.52,3.77,1.25,5.45,2.2.95.47,1.49,1.2,1.65,2.19.14.99-.1,1.89-.75,2.71-.47.64-1.08,1.01-1.83,1.09-.76.09-1.5-.06-2.23-.45-1.25-.64-2.56-1.16-3.93-1.55-1.38-.38-2.84-.58-4.39-.58-2.45,0-4.65.4-6.61,1.2-1.95.79-3.64,1.93-5.06,3.41-1.42,1.49-2.5,3.24-3.25,5.26-.76,2.02-1.13,4.25-1.13,6.7,0,2.71.41,5.11,1.22,7.19.82,2.09,1.95,3.85,3.39,5.29,1.44,1.44,3.14,2.51,5.09,3.22,1.96.71,4.07,1.07,6.35,1.07,1.47,0,2.89-.17,4.29-.52,1.4-.34,2.72-.86,3.97-1.55.77-.38,1.53-.52,2.29-.42.75.11,1.36.49,1.83,1.13Z"/>
  <path class="cls-1" d="m243.28,150.32c-1.17-1.12-3.02-1.12-4.18.02-.69.67-16.9,16.66-16.9,29.34,0,11.85,9.61,18.05,19.11,18.05s19.12-6.2,19.12-18.05c0-12.69-16.45-28.68-17.15-29.36Zm-1.97,41.41c-10.35,0-13.11-7.57-13.11-12.05,0-7.26,8.09-17.56,13.01-22.9,5,5.34,13.22,15.64,13.22,22.9,0,4.48-2.76,12.05-13.12,12.05Z"/>
  <path class="cls-1" d="m243.28,92.65c-1.17-1.12-3.02-1.12-4.18.02-.69.67-16.9,16.66-16.9,29.34,0,11.85,9.61,18.05,19.11,18.05s19.12-6.2,19.12-18.05c0-12.69-16.45-28.68-17.15-29.36Zm-1.97,41.41c-10.35,0-13.11-7.57-13.11-12.05,0-7.27,8.09-17.56,13.02-22.9,4.99,5.33,13.21,15.62,13.21,22.9,0,4.48-2.76,12.05-13.12,12.05Z"/>
  <path class="cls-1" d="m307.41,151.33c.54.58.81,1.3.81,2.16v38.81c0,.95-.32,1.73-.94,2.36-.62.62-1.41.93-2.35.93-.43,0-.9-.08-1.39-.26-.49-.17-.87-.41-1.13-.71l-25.01-32.44v30.44c0,.82-.28,1.52-.84,2.1s-1.27.87-2.13.87-1.62-.29-2.16-.87-.81-1.28-.81-2.1v-38.87c0-.99.33-1.79.97-2.39.65-.6,1.42-.9,2.32-.9.47,0,.98.09,1.52.29.53.19.93.48,1.19.87l24.89,32.4v-30.53c0-.86.28-1.58.84-2.16.55-.58,1.26-.87,2.12-.87s1.56.29,2.1.87Z"/>
  <path class="cls-1" d="m311.58,93.66c.66.62,1,1.41,1,2.35v38.62c0,.95-.3,1.73-.91,2.35-.6.63-1.39.94-2.38.94s-1.86-.31-2.48-.94c-.63-.62-.94-1.4-.94-2.35v-29.1l-12.12,18.46c-.3.39-.69.72-1.16,1-.47.28-.97.4-1.48.36-.48.04-.96-.08-1.45-.36-.5-.28-.9-.61-1.2-1l-12.12-18.87v29.51c0,.95-.29,1.73-.87,2.35-.58.63-1.34.94-2.29.94-.9,0-1.64-.31-2.22-.94-.58-.62-.87-1.4-.87-2.35v-38.62c0-.9.33-1.68,1-2.32.66-.65,1.45-.97,2.35-.97.52,0,1.05.13,1.61.39s.99.62,1.29,1.09l14.97,22.81,15.34-22.81c.68-.98,1.56-1.48,2.64-1.48.86,0,1.62.31,2.29.94Z"/>
  <path class="cls-1" d="m330.5,156.65v12.7h15.93c.9,0,1.66.3,2.29.9.62.6.93,1.38.93,2.32s-.31,1.64-.93,2.19c-.63.56-1.39.84-2.29.84h-15.93v13.8h18.83c.9,0,1.66.31,2.29.94.62.62.93,1.34.93,2.16,0,.9-.31,1.64-.93,2.22-.63.58-1.39.87-2.29.87h-22.31c-.9,0-1.68-.31-2.32-.93-.65-.63-.97-1.41-.97-2.36v-38.55c0-.95.32-1.73.97-2.36.64-.62,1.42-.93,2.32-.93h22.31c.9,0,1.66.3,2.29.9.62.6.93,1.35.93,2.26s-.31,1.63-.93,2.19c-.63.56-1.39.84-2.29.84h-18.83Z"/>
  <path class="cls-1" d="m351.62,132.66c.62.63.93,1.35.93,2.17,0,.9-.31,1.64-.93,2.22-.63.58-1.39.87-2.29.87h-22.31c-.9,0-1.68-.31-2.32-.94-.65-.62-.97-1.4-.97-2.35v-38.56c0-.94.32-1.73.97-2.35.64-.62,1.42-.93,2.32-.93h22.31c.9,0,1.66.3,2.29.9.62.6.93,1.35.93,2.26s-.31,1.63-.93,2.19c-.63.56-1.39.84-2.29.84h-18.83v12.7h15.93c.9,0,1.66.3,2.29.9.62.6.93,1.38.93,2.32s-.31,1.64-.93,2.19c-.63.56-1.39.84-2.29.84h-15.93v13.8h18.83c.9,0,1.66.31,2.29.93Z"/>
  <g>
    <path class="cls-3" d="m243.28,92.65c-1.17-1.12-3.02-1.12-4.18.02-.69.67-16.9,16.66-16.9,29.34,0,11.85,9.61,18.05,19.11,18.05s19.12-6.2,19.12-18.05c0-12.69-16.45-28.68-17.15-29.36Zm-1.97,41.41c-10.35,0-13.11-7.57-13.11-12.05,0-7.27,8.09-17.56,13.02-22.9,4.99,5.33,13.21,15.62,13.21,22.9,0,4.48-2.76,12.05-13.12,12.05Z"/>
    <path class="cls-3" d="m243.28,150.32c-1.17-1.12-3.02-1.12-4.18.02-.69.67-16.9,16.66-16.9,29.34,0,11.85,9.61,18.05,19.11,18.05s19.12-6.2,19.12-18.05c0-12.69-16.45-28.68-17.15-29.36Zm-1.97,41.41c-10.35,0-13.11-7.57-13.11-12.05,0-7.26,8.09-17.56,13.01-22.9,5,5.34,13.22,15.64,13.22,22.9,0,4.48-2.76,12.05-13.12,12.05Z"/>
    <path class="cls-3" d="m131.21,118.54c-.95-1.61-2.15-2.89-3.61-3.83-.97-.62-1.98-1.11-3.02-1.5.09-.04.19-.07.28-.11,1.78-.91,3.13-2.14,4.06-3.71.92-1.57,1.38-3.32,1.38-5.26,0-3.69-1.02-6.51-3.06-8.44-2.04-1.94-5.04-2.9-8.99-2.9h-16.51c-.9,0-1.67.31-2.32.93-.64.62-.97,1.41-.97,2.35v38.56c0,.95.33,1.73.97,2.35.65.63,1.42.94,2.32.94h16.51c1.63,0,3.3-.2,4.99-.61,1.7-.41,3.26-1.11,4.68-2.1s2.56-2.35,3.42-4.09c.86-1.74,1.29-3.92,1.29-6.55,0-2.4-.48-4.41-1.42-6.03Zm-25.79-19.44h11.92c1.85,0,3.31.51,4.39,1.52,1.07,1.01,1.61,2.53,1.61,4.55s-.59,3.47-1.77,4.48c-1.18,1.01-2.55,1.53-4.1,1.58h-12.05v-12.13Zm18.18,30.86c-1.38,1.18-3.18,1.77-5.42,1.77h-12.76v-14.18h12.38c1.2,0,2.4.17,3.61.51,1.2.35,2.21,1.01,3.03,2,.81.99,1.22,2.49,1.22,4.51,0,2.41-.69,4.21-2.06,5.39Z"/>
    <path class="cls-3" d="m169.15,132.66c.62.63.94,1.35.94,2.17,0,.9-.32,1.64-.94,2.22-.62.58-1.39.87-2.29.87h-22.31c-.9,0-1.67-.31-2.32-.94-.64-.62-.97-1.4-.97-2.35v-38.56c0-.94.33-1.73.97-2.35.65-.62,1.42-.93,2.32-.93h22.31c.9,0,1.67.3,2.29.9.62.6.94,1.35.94,2.26s-.32,1.63-.94,2.19-1.39.84-2.29.84h-18.82v12.7h15.92c.9,0,1.67.3,2.29.9.62.6.93,1.38.93,2.32s-.31,1.64-.93,2.19c-.62.56-1.39.84-2.29.84h-15.92v13.8h18.82c.9,0,1.67.31,2.29.93Z"/>
    <path class="cls-3" d="m212.48,133.5c-.19.93-.74,1.63-1.64,2.1-1.08.6-2.26,1.12-3.55,1.55s-2.6.77-3.93,1.03c-1.34.26-2.69.38-4.07.38-3.09,0-6.02-.51-8.77-1.54-2.75-1.03-5.2-2.54-7.35-4.52-2.15-1.97-3.83-4.4-5.06-7.28-1.22-2.88-1.83-6.17-1.83-9.87,0-3.31.56-6.37,1.7-9.19,1.14-2.81,2.75-5.24,4.84-7.28,2.08-2.04,4.52-3.63,7.32-4.77,2.79-1.14,5.84-1.71,9.15-1.71,2.07,0,4.08.26,6.03.77,1.96.52,3.77,1.25,5.45,2.2.95.47,1.49,1.2,1.65,2.19.14.99-.1,1.89-.75,2.71-.47.64-1.08,1.01-1.83,1.09-.76.09-1.5-.06-2.23-.45-1.25-.64-2.56-1.16-3.93-1.55-1.38-.38-2.84-.58-4.39-.58-2.45,0-4.65.4-6.61,1.2-1.95.79-3.64,1.93-5.06,3.41-1.42,1.49-2.5,3.24-3.25,5.26-.76,2.02-1.13,4.25-1.13,6.7,0,2.71.41,5.11,1.22,7.19.82,2.09,1.95,3.85,3.39,5.29,1.44,1.44,3.14,2.51,5.09,3.22,1.96.71,4.07,1.07,6.35,1.07,1.47,0,2.89-.17,4.29-.52,1.4-.34,2.72-.86,3.97-1.55.77-.38,1.53-.52,2.29-.42.75.11,1.36.49,1.83,1.13.73.91,1,1.82.81,2.74Z"/>
    <path class="cls-3" d="m312.58,96.01v38.62c0,.95-.3,1.73-.91,2.35-.6.63-1.39.94-2.38.94s-1.86-.31-2.48-.94c-.63-.62-.94-1.4-.94-2.35v-29.1l-12.12,18.46c-.3.39-.69.72-1.16,1-.47.28-.97.4-1.48.36-.48.04-.96-.08-1.45-.36-.5-.28-.9-.61-1.2-1l-12.12-18.87v29.51c0,.95-.29,1.73-.87,2.35-.58.63-1.34.94-2.29.94-.9,0-1.64-.31-2.22-.94-.58-.62-.87-1.4-.87-2.35v-38.62c0-.9.33-1.68,1-2.32.66-.65,1.45-.97,2.35-.97.52,0,1.05.13,1.61.39s.99.62,1.29,1.09l14.97,22.81,15.34-22.81c.68-.98,1.56-1.48,2.64-1.48.86,0,1.62.31,2.29.94.66.62,1,1.41,1,2.35Z"/>
    <path class="cls-3" d="m351.62,132.66c.62.63.93,1.35.93,2.17,0,.9-.31,1.64-.93,2.22-.63.58-1.39.87-2.29.87h-22.31c-.9,0-1.68-.31-2.32-.94-.65-.62-.97-1.4-.97-2.35v-38.56c0-.94.32-1.73.97-2.35.64-.62,1.42-.93,2.32-.93h22.31c.9,0,1.66.3,2.29.9.62.6.93,1.35.93,2.26s-.31,1.63-.93,2.19c-.63.56-1.39.84-2.29.84h-18.83v12.7h15.93c.9,0,1.66.3,2.29.9.62.6.93,1.38.93,2.32s-.31,1.64-.93,2.19c-.63.56-1.39.84-2.29.84h-15.93v13.8h18.83c.9,0,1.66.31,2.29.93Z"/>
    <path class="cls-3" d="m308.22,153.49v38.81c0,.95-.32,1.73-.94,2.36-.62.62-1.41.93-2.35.93-.43,0-.9-.08-1.39-.26-.49-.17-.87-.41-1.13-.71l-25.01-32.44v30.44c0,.82-.28,1.52-.84,2.1s-1.27.87-2.13.87-1.62-.29-2.16-.87-.81-1.28-.81-2.1v-38.87c0-.99.33-1.79.97-2.39.65-.6,1.42-.9,2.32-.9.47,0,.98.09,1.52.29.53.19.93.48,1.19.87l24.89,32.4v-30.53c0-.86.28-1.58.84-2.16.55-.58,1.26-.87,2.12-.87s1.56.29,2.1.87c.54.58.81,1.3.81,2.16Z"/>
    <path class="cls-3" d="m351.62,190.34c.62.62.93,1.34.93,2.16,0,.9-.31,1.64-.93,2.22-.63.58-1.39.87-2.29.87h-22.31c-.9,0-1.68-.31-2.32-.93-.65-.63-.97-1.41-.97-2.36v-38.55c0-.95.32-1.73.97-2.36.64-.62,1.42-.93,2.32-.93h22.31c.9,0,1.66.3,2.29.9.62.6.93,1.35.93,2.26s-.31,1.63-.93,2.19c-.63.56-1.39.84-2.29.84h-18.83v12.7h15.93c.9,0,1.66.3,2.29.9.62.6.93,1.38.93,2.32s-.31,1.64-.93,2.19c-.63.56-1.39.84-2.29.84h-15.93v13.8h18.83c.9,0,1.66.31,2.29.94Z"/>
    <path class="cls-3" d="m205.84,166.08c-5.38,2.88-10.72,4.34-15.89,4.34-9.14,0-16.26-3.71-22.54-6.99-5.34-2.78-10.39-5.42-15.97-5.42s-10.63,2.64-15.98,5.42c-6.27,3.28-13.39,6.99-22.54,6.99-5.16,0-10.51-1.46-15.88-4.34-1.46-.79-2.01-2.6-1.23-4.06.78-1.46,2.6-2.01,4.06-1.23,4.5,2.41,8.89,3.63,13.05,3.63,7.68,0,13.83-3.2,19.77-6.31,5.75-2.99,11.69-6.1,18.75-6.1s13,3.11,18.75,6.11c5.94,3.1,12.09,6.3,19.76,6.3,4.17,0,8.56-1.22,13.05-3.63,1.46-.78,3.28-.23,4.07,1.22.78,1.46.23,3.28-1.23,4.07Z"/>
    <path class="cls-3" d="m205.84,191.24c-5.37,2.89-10.72,4.35-15.89,4.35-9.14,0-16.26-3.71-22.54-6.99-5.34-2.79-10.39-5.42-15.97-5.42s-10.63,2.63-15.98,5.42c-6.27,3.28-13.39,6.99-22.54,6.99-5.16,0-10.51-1.46-15.88-4.35-1.46-.78-2.01-2.6-1.23-4.06.78-1.46,2.6-2.01,4.06-1.22,4.5,2.41,8.89,3.63,13.05,3.63,7.68,0,13.83-3.21,19.77-6.31,5.75-3,11.69-6.1,18.75-6.1s13,3.1,18.75,6.1c5.94,3.1,12.09,6.31,19.76,6.31,4.17,0,8.56-1.22,13.05-3.63,1.46-.79,3.28-.24,4.07,1.22.78,1.46.23,3.28-1.23,4.06Z"/>
  </g>
  <g class="cls-2">
    <image width="3456" height="4557" transform="translate(-257.1 120.6) scale(.21 .12)" xlink:href="../../../OCEANS DAY/01_PHOTOS/pexels-kristoÌf-sasskovan-8547895.jpg"/>
  </g>
</svg>