<?xml version="1.0" encoding="UTF-8"?>
<svg xmlns="http://www.w3.org/2000/svg" xmlns:xlink="http://www.w3.org/1999/xlink" width="140.92575pt" height="141.92625pt" viewBox="0 0 140.92575 141.92625" version="1.1">
<defs>
<clipPath id="clip1">
  <path d="M 124 77 L 140.925781 77 L 140.925781 91 L 124 91 Z M 124 77 "/>
</clipPath>
<clipPath id="clip2">
  <path d="M 75 123 L 93 123 L 93 141.925781 L 75 141.925781 Z M 75 123 "/>
</clipPath>
<clipPath id="clip3">
  <path d="M 59 126 L 71 126 L 71 141.925781 L 59 141.925781 Z M 59 126 "/>
</clipPath>
</defs>
<g id="surface1">
<path style=" stroke:none;fill-rule:nonzero;fill:rgb(81.176471%,89.803922%,97.254902%);fill-opacity:1;" d="M 1.304688 55.816406 C 1.566406 54.503906 2.085938 53.570312 2.859375 53.019531 C 3.636719 52.46875 4.640625 52.316406 5.867188 52.558594 C 6.511719 52.6875 7.0625 52.957031 7.519531 53.367188 C 7.980469 53.777344 8.300781 54.308594 8.484375 54.960938 C 8.667969 55.613281 8.675781 56.382812 8.515625 57.269531 L 7.730469 57.070312 C 7.824219 56.597656 7.992188 56.101562 8.226562 55.578125 C 8.464844 55.050781 8.789062 54.578125 9.199219 54.15625 C 9.609375 53.734375 10.113281 53.417969 10.710938 53.210938 C 11.308594 53.003906 12.007812 52.976562 12.804688 53.136719 C 13.675781 53.308594 14.371094 53.597656 14.894531 53.996094 C 15.414062 54.398438 15.792969 54.863281 16.027344 55.402344 C 16.261719 55.9375 16.390625 56.5 16.417969 57.089844 C 16.441406 57.679688 16.398438 58.246094 16.289062 58.789062 L 15.203125 64.269531 C 15.140625 64.570312 14.988281 64.808594 14.738281 64.980469 C 14.488281 65.152344 14.207031 65.207031 13.894531 65.144531 L 1.09375 62.605469 C 0.777344 62.542969 0.539062 62.382812 0.375 62.128906 C 0.210938 61.871094 0.15625 61.59375 0.21875 61.296875 Z M 3.34375 56.53125 L 2.507812 60.75 L 2.214844 60.421875 L 6.816406 61.335938 L 6.535156 61.527344 L 7.375 57.289062 C 7.464844 56.769531 7.378906 56.285156 7.121094 55.824219 C 6.863281 55.363281 6.40625 55.070312 5.75 54.941406 C 5.078125 54.804688 4.542969 54.886719 4.136719 55.175781 C 3.730469 55.464844 3.464844 55.917969 3.34375 56.53125 Z M 9.496094 57.597656 L 8.648438 61.855469 L 8.53125 61.675781 L 13.582031 62.679688 L 13.355469 62.8125 L 14.230469 58.402344 C 14.378906 57.660156 14.300781 57.023438 14 56.488281 C 13.695312 55.953125 13.148438 55.609375 12.347656 55.449219 C 11.675781 55.316406 11.152344 55.351562 10.769531 55.558594 C 10.386719 55.765625 10.097656 56.054688 9.90625 56.433594 C 9.710938 56.808594 9.574219 57.199219 9.496094 57.597656 Z M 9.496094 57.597656 "/>
<path style=" stroke:none;fill-rule:nonzero;fill:rgb(81.176471%,89.803922%,97.254902%);fill-opacity:1;" d="M 5.539062 42.558594 L 8.890625 35.792969 C 9.027344 35.519531 9.234375 35.332031 9.507812 35.234375 C 9.785156 35.136719 10.058594 35.152344 10.335938 35.289062 C 10.609375 35.425781 10.78125 35.628906 10.859375 35.902344 C 10.933594 36.175781 10.90625 36.449219 10.769531 36.722656 L 7.84375 42.628906 L 7.605469 42.269531 L 11.988281 44.4375 L 11.703125 44.519531 L 14.183594 39.511719 C 14.320312 39.238281 14.527344 39.050781 14.804688 38.953125 C 15.078125 38.855469 15.359375 38.875 15.648438 39.019531 C 15.921875 39.15625 16.097656 39.359375 16.171875 39.632812 C 16.246094 39.90625 16.21875 40.179688 16.082031 40.453125 L 13.621094 45.417969 L 13.511719 45.195312 L 18.03125 47.433594 L 17.804688 47.492188 L 20.703125 41.644531 C 20.839844 41.371094 21.046875 41.1875 21.332031 41.09375 C 21.613281 40.996094 21.878906 41.011719 22.125 41.132812 C 22.398438 41.269531 22.578125 41.472656 22.660156 41.75 C 22.742188 42.027344 22.714844 42.300781 22.582031 42.574219 L 19.226562 49.34375 C 19.089844 49.617188 18.882812 49.804688 18.59375 49.90625 C 18.308594 50.007812 18.023438 49.988281 17.734375 49.84375 L 6.042969 44.050781 C 5.753906 43.910156 5.566406 43.691406 5.472656 43.402344 C 5.382812 43.113281 5.402344 42.832031 5.539062 42.558594 Z M 5.539062 42.558594 "/>
<path style=" stroke:none;fill-rule:nonzero;fill:rgb(81.176471%,89.803922%,97.254902%);fill-opacity:1;" d="M 21.597656 20.636719 C 21.929688 20.5 22.238281 20.523438 22.523438 20.707031 C 22.808594 20.890625 22.984375 21.152344 23.050781 21.5 C 23.109375 21.765625 23.0625 22 22.917969 22.210938 C 22.773438 22.421875 22.570312 22.578125 22.308594 22.679688 C 21.863281 22.851562 21.441406 23.070312 21.035156 23.335938 C 20.632812 23.597656 20.253906 23.925781 19.910156 24.320312 C 19.363281 24.945312 18.972656 25.59375 18.742188 26.269531 C 18.507812 26.945312 18.421875 27.628906 18.484375 28.320312 C 18.542969 29.015625 18.75 29.679688 19.09375 30.324219 C 19.441406 30.964844 19.925781 31.558594 20.550781 32.105469 C 21.242188 32.710938 21.941406 33.140625 22.65625 33.394531 C 23.367188 33.652344 24.070312 33.757812 24.757812 33.710938 C 25.445312 33.667969 26.097656 33.472656 26.714844 33.132812 C 27.332031 32.792969 27.894531 32.335938 28.402344 31.753906 C 28.726562 31.382812 29 30.980469 29.226562 30.546875 C 29.449219 30.113281 29.613281 29.664062 29.714844 29.191406 C 29.789062 28.910156 29.925781 28.683594 30.121094 28.515625 C 30.3125 28.347656 30.546875 28.277344 30.816406 28.300781 C 31.207031 28.3125 31.5 28.449219 31.695312 28.707031 C 31.886719 28.960938 31.941406 29.253906 31.859375 29.589844 C 31.773438 30 31.640625 30.414062 31.464844 30.839844 C 31.285156 31.265625 31.082031 31.675781 30.851562 32.070312 C 30.617188 32.46875 30.347656 32.839844 30.042969 33.191406 C 29.351562 33.980469 28.570312 34.609375 27.695312 35.082031 C 26.816406 35.550781 25.886719 35.839844 24.90625 35.945312 C 23.921875 36.050781 22.929688 35.941406 21.921875 35.609375 C 20.914062 35.28125 19.941406 34.703125 19 33.878906 C 18.15625 33.140625 17.503906 32.3125 17.039062 31.394531 C 16.578125 30.476562 16.316406 29.523438 16.261719 28.539062 C 16.207031 27.554688 16.347656 26.578125 16.679688 25.613281 C 17.011719 24.644531 17.546875 23.742188 18.285156 22.898438 C 18.746094 22.371094 19.257812 21.917969 19.828125 21.535156 C 20.394531 21.152344 20.984375 20.851562 21.597656 20.636719 Z M 21.597656 20.636719 "/>
<path style=" stroke:none;fill-rule:nonzero;fill:rgb(81.176471%,89.803922%,97.254902%);fill-opacity:1;" d="M 43.3125 13.441406 C 43.898438 14.378906 44.292969 15.347656 44.488281 16.351562 C 44.683594 17.351562 44.691406 18.328125 44.507812 19.285156 C 44.324219 20.238281 43.957031 21.125 43.40625 21.945312 C 42.851562 22.761719 42.117188 23.457031 41.207031 24.027344 C 40.304688 24.589844 39.367188 24.941406 38.390625 25.078125 C 37.414062 25.21875 36.453125 25.160156 35.515625 24.910156 C 34.574219 24.65625 33.703125 24.21875 32.894531 23.601562 C 32.085938 22.980469 31.390625 22.203125 30.804688 21.265625 C 30.21875 20.328125 29.824219 19.359375 29.621094 18.363281 C 29.417969 17.367188 29.40625 16.390625 29.589844 15.433594 C 29.773438 14.476562 30.140625 13.589844 30.695312 12.773438 C 31.246094 11.957031 31.972656 11.265625 32.875 10.703125 C 33.785156 10.132812 34.730469 9.777344 35.710938 9.636719 C 36.6875 9.5 37.644531 9.554688 38.582031 9.808594 C 39.523438 10.0625 40.398438 10.496094 41.210938 11.113281 C 42.027344 11.726562 42.726562 12.503906 43.3125 13.441406 Z M 41.3125 14.691406 C 40.742188 13.777344 40.046875 13.074219 39.230469 12.570312 C 38.410156 12.070312 37.550781 11.8125 36.644531 11.792969 C 35.742188 11.777344 34.871094 12.027344 34.03125 12.554688 C 33.203125 13.070312 32.601562 13.738281 32.222656 14.558594 C 31.84375 15.378906 31.699219 16.261719 31.792969 17.207031 C 31.886719 18.152344 32.222656 19.089844 32.800781 20.015625 C 33.375 20.925781 34.066406 21.636719 34.878906 22.140625 C 35.691406 22.644531 36.550781 22.90625 37.453125 22.925781 C 38.355469 22.941406 39.222656 22.691406 40.046875 22.175781 C 40.886719 21.652344 41.496094 20.980469 41.875 20.160156 C 42.253906 19.335938 42.398438 18.449219 42.308594 17.492188 C 42.214844 16.539062 41.886719 15.605469 41.3125 14.691406 Z M 41.3125 14.691406 "/>
<path style=" stroke:none;fill-rule:nonzero;fill:rgb(81.176471%,89.803922%,97.254902%);fill-opacity:1;" d="M 48.480469 3.34375 C 48.652344 3.304688 48.839844 3.304688 49.042969 3.347656 C 49.246094 3.386719 49.417969 3.476562 49.554688 3.609375 L 56.867188 10.578125 L 55.945312 10.746094 L 59.542969 1.28125 C 59.695312 0.902344 59.945312 0.671875 60.300781 0.589844 C 60.585938 0.523438 60.859375 0.566406 61.128906 0.722656 C 61.394531 0.878906 61.566406 1.109375 61.636719 1.421875 L 64.601562 14.152344 C 64.675781 14.464844 64.636719 14.746094 64.484375 15 C 64.335938 15.25 64.097656 15.414062 63.769531 15.492188 C 63.429688 15.570312 63.132812 15.53125 62.882812 15.371094 C 62.628906 15.214844 62.464844 14.980469 62.390625 14.667969 L 59.882812 3.890625 L 60.597656 3.882812 L 57.578125 12.09375 C 57.507812 12.242188 57.40625 12.382812 57.273438 12.511719 C 57.140625 12.640625 56.984375 12.714844 56.8125 12.742188 C 56.660156 12.792969 56.492188 12.789062 56.304688 12.734375 C 56.121094 12.683594 55.964844 12.601562 55.835938 12.496094 L 49.695312 6.53125 L 50.007812 5.5625 L 52.65625 16.9375 C 52.730469 17.246094 52.695312 17.527344 52.550781 17.777344 C 52.40625 18.027344 52.179688 18.191406 51.867188 18.261719 C 51.570312 18.332031 51.300781 18.285156 51.0625 18.125 C 50.824219 17.964844 50.667969 17.726562 50.59375 17.417969 L 47.628906 4.683594 C 47.558594 4.386719 47.609375 4.105469 47.78125 3.839844 C 47.949219 3.578125 48.183594 3.410156 48.480469 3.34375 Z M 48.480469 3.34375 "/>
<path style=" stroke:none;fill-rule:nonzero;fill:rgb(81.176471%,89.803922%,97.254902%);fill-opacity:1;" d="M 71.671875 0.0703125 L 79.210938 0.542969 C 79.515625 0.5625 79.765625 0.679688 79.964844 0.898438 C 80.160156 1.113281 80.25 1.375 80.230469 1.679688 C 80.210938 1.984375 80.089844 2.226562 79.867188 2.402344 C 79.644531 2.578125 79.382812 2.65625 79.078125 2.636719 L 72.5 2.222656 L 72.742188 1.863281 L 72.433594 6.742188 L 72.25 6.511719 L 77.828125 6.863281 C 78.132812 6.882812 78.382812 7 78.582031 7.21875 C 78.777344 7.433594 78.867188 7.703125 78.847656 8.023438 C 78.828125 8.328125 78.707031 8.566406 78.484375 8.742188 C 78.261719 8.917969 78 8.996094 77.695312 8.976562 L 72.160156 8.628906 L 72.328125 8.441406 L 72.011719 13.472656 L 71.867188 13.289062 L 78.382812 13.699219 C 78.6875 13.71875 78.9375 13.839844 79.136719 14.066406 C 79.332031 14.289062 79.421875 14.539062 79.40625 14.8125 C 79.386719 15.121094 79.265625 15.363281 79.042969 15.546875 C 78.820312 15.730469 78.554688 15.8125 78.25 15.792969 L 70.714844 15.316406 C 70.410156 15.296875 70.152344 15.175781 69.949219 14.953125 C 69.746094 14.726562 69.652344 14.457031 69.671875 14.136719 L 70.492188 1.109375 C 70.511719 0.792969 70.636719 0.535156 70.867188 0.335938 C 71.101562 0.140625 71.367188 0.0507812 71.671875 0.0703125 Z M 71.671875 0.0703125 "/>
<path style=" stroke:none;fill-rule:nonzero;fill:rgb(81.176471%,89.803922%,97.254902%);fill-opacity:1;" d="M 106.535156 18.515625 C 106.019531 19.492188 105.378906 20.316406 104.609375 20.988281 C 103.84375 21.660156 103 22.160156 102.082031 22.480469 C 101.164062 22.800781 100.210938 22.925781 99.226562 22.859375 C 98.242188 22.792969 97.273438 22.503906 96.324219 22.003906 C 95.382812 21.507812 94.609375 20.871094 94 20.09375 C 93.386719 19.320312 92.957031 18.460938 92.703125 17.523438 C 92.453125 16.582031 92.390625 15.609375 92.523438 14.597656 C 92.652344 13.589844 92.976562 12.597656 93.492188 11.617188 C 94.007812 10.640625 94.648438 9.8125 95.410156 9.136719 C 96.167969 8.460938 97.007812 7.964844 97.925781 7.644531 C 98.84375 7.320312 99.796875 7.195312 100.78125 7.261719 C 101.765625 7.332031 102.726562 7.613281 103.667969 8.109375 C 104.617188 8.613281 105.398438 9.253906 106.011719 10.027344 C 106.621094 10.800781 107.050781 11.660156 107.304688 12.601562 C 107.558594 13.539062 107.621094 14.515625 107.496094 15.527344 C 107.375 16.539062 107.054688 17.535156 106.535156 18.515625 Z M 104.453125 17.414062 C 104.957031 16.460938 105.21875 15.503906 105.238281 14.546875 C 105.261719 13.585938 105.054688 12.710938 104.617188 11.917969 C 104.179688 11.128906 103.523438 10.5 102.648438 10.039062 C 101.785156 9.582031 100.902344 9.398438 100.003906 9.480469 C 99.105469 9.566406 98.269531 9.886719 97.496094 10.441406 C 96.726562 10.996094 96.085938 11.753906 95.578125 12.71875 C 95.074219 13.671875 94.808594 14.625 94.78125 15.582031 C 94.75 16.539062 94.957031 17.414062 95.394531 18.203125 C 95.832031 18.996094 96.480469 19.617188 97.34375 20.074219 C 98.21875 20.535156 99.105469 20.726562 100.003906 20.640625 C 100.90625 20.558594 101.746094 20.234375 102.527344 19.675781 C 103.308594 19.117188 103.949219 18.363281 104.453125 17.414062 Z M 104.453125 17.414062 "/>
<path style=" stroke:none;fill-rule:nonzero;fill:rgb(81.176471%,89.803922%,97.254902%);fill-opacity:1;" d="M 124.839844 25.21875 C 125.042969 25.429688 125.140625 25.667969 125.125 25.933594 C 125.113281 26.199219 125 26.4375 124.792969 26.640625 L 115.394531 35.820312 C 115.164062 36.042969 114.902344 36.152344 114.601562 36.148438 C 114.304688 36.144531 114.042969 36.027344 113.820312 35.800781 C 113.71875 35.695312 113.628906 35.5625 113.554688 35.402344 C 113.480469 35.242188 113.445312 35.097656 113.460938 34.960938 L 115.515625 20.417969 L 116.066406 20.578125 L 108.027344 28.429688 C 107.828125 28.625 107.59375 28.722656 107.320312 28.722656 C 107.046875 28.726562 106.808594 28.621094 106.605469 28.414062 C 106.394531 28.195312 106.292969 27.953125 106.308594 27.6875 C 106.320312 27.417969 106.425781 27.1875 106.625 26.996094 L 116.039062 17.800781 C 116.277344 17.566406 116.546875 17.457031 116.847656 17.46875 C 117.144531 17.484375 117.398438 17.601562 117.613281 17.820312 C 117.726562 17.933594 117.820312 18.078125 117.902344 18.253906 C 117.980469 18.429688 118.003906 18.59375 117.972656 18.75 L 115.9375 32.96875 L 115.488281 32.949219 L 123.40625 25.21875 C 123.613281 25.015625 123.855469 24.914062 124.125 24.910156 C 124.398438 24.910156 124.636719 25.011719 124.839844 25.21875 Z M 124.839844 25.21875 "/>
<path style=" stroke:none;fill-rule:nonzero;fill:rgb(81.176471%,89.803922%,97.254902%);fill-opacity:1;" d="M 131.21875 34.289062 L 134.816406 40.925781 C 134.964844 41.195312 134.996094 41.472656 134.917969 41.753906 C 134.839844 42.035156 134.667969 42.25 134.398438 42.394531 C 134.128906 42.542969 133.863281 42.566406 133.59375 42.472656 C 133.328125 42.375 133.121094 42.195312 132.976562 41.925781 L 129.835938 36.132812 L 130.265625 36.148438 L 125.96875 38.476562 L 126.066406 38.199219 L 128.730469 43.113281 C 128.875 43.378906 128.90625 43.65625 128.828125 43.9375 C 128.75 44.222656 128.570312 44.4375 128.289062 44.589844 C 128.019531 44.738281 127.753906 44.761719 127.484375 44.667969 C 127.21875 44.570312 127.011719 44.390625 126.867188 44.121094 L 124.226562 39.246094 L 124.46875 39.289062 L 120.039062 41.691406 L 120.121094 41.472656 L 123.230469 47.210938 C 123.375 47.480469 123.40625 47.757812 123.320312 48.042969 C 123.238281 48.328125 123.074219 48.539062 122.828125 48.667969 C 122.5625 48.816406 122.289062 48.84375 122.015625 48.75 C 121.742188 48.660156 121.535156 48.476562 121.386719 48.210938 L 117.789062 41.570312 C 117.644531 41.304688 117.609375 41.023438 117.691406 40.730469 C 117.773438 40.4375 117.953125 40.214844 118.234375 40.0625 L 129.710938 33.839844 C 129.992188 33.6875 130.277344 33.65625 130.566406 33.75 C 130.855469 33.839844 131.074219 34.019531 131.21875 34.289062 Z M 131.21875 34.289062 "/>
<path style=" stroke:none;fill-rule:nonzero;fill:rgb(81.176471%,89.803922%,97.254902%);fill-opacity:1;" d="M 130.085938 61.902344 C 130.007812 61.371094 130.066406 60.859375 130.261719 60.363281 C 130.460938 59.871094 130.761719 59.457031 131.167969 59.125 C 131.574219 58.792969 132.042969 58.585938 132.574219 58.503906 C 133.152344 58.417969 133.683594 58.476562 134.167969 58.683594 C 134.65625 58.890625 135.0625 59.195312 135.390625 59.601562 C 135.714844 60.011719 135.917969 60.480469 136 61.011719 C 136.082031 61.558594 136.027344 62.074219 135.835938 62.558594 C 135.644531 63.042969 135.34375 63.457031 134.941406 63.796875 C 134.535156 64.136719 134.046875 64.351562 133.46875 64.4375 C 132.9375 64.519531 132.425781 64.457031 131.941406 64.25 C 131.453125 64.042969 131.042969 63.738281 130.710938 63.332031 C 130.375 62.925781 130.167969 62.449219 130.085938 61.902344 Z M 130.085938 61.902344 "/>
<g clip-path="url(#clip1)" clip-rule="nonzero">
<path style=" stroke:none;fill-rule:nonzero;fill:rgb(81.176471%,89.803922%,97.254902%);fill-opacity:1;" d="M 139.539062 86.980469 C 139.261719 88.292969 138.730469 89.214844 137.949219 89.757812 C 137.164062 90.296875 136.160156 90.4375 134.933594 90.179688 C 134.292969 90.042969 133.746094 89.769531 133.292969 89.351562 C 132.835938 88.9375 132.523438 88.402344 132.347656 87.746094 C 132.175781 87.09375 132.175781 86.324219 132.347656 85.4375 L 133.128906 85.648438 C 133.027344 86.117188 132.855469 86.613281 132.613281 87.132812 C 132.367188 87.65625 132.039062 88.125 131.625 88.542969 C 131.207031 88.960938 130.699219 89.269531 130.101562 89.46875 C 129.5 89.667969 128.800781 89.683594 128.003906 89.515625 C 127.136719 89.332031 126.445312 89.035156 125.925781 88.628906 C 125.410156 88.222656 125.039062 87.75 124.8125 87.210938 C 124.582031 86.671875 124.460938 86.105469 124.445312 85.515625 C 124.429688 84.925781 124.476562 84.359375 124.59375 83.820312 L 125.75 78.351562 C 125.8125 78.054688 125.96875 77.820312 126.222656 77.648438 C 126.472656 77.480469 126.753906 77.425781 127.066406 77.492188 L 139.835938 80.195312 C 140.148438 80.261719 140.386719 80.425781 140.546875 80.683594 C 140.710938 80.9375 140.757812 81.214844 140.695312 81.515625 Z M 137.507812 86.238281 L 138.398438 82.035156 L 138.6875 82.363281 L 134.097656 81.390625 L 134.378906 81.207031 L 133.484375 85.433594 C 133.390625 85.949219 133.46875 86.4375 133.722656 86.898438 C 133.972656 87.363281 134.425781 87.664062 135.082031 87.800781 C 135.75 87.941406 136.289062 87.871094 136.699219 87.585938 C 137.109375 87.300781 137.378906 86.851562 137.507812 86.238281 Z M 131.371094 85.097656 L 132.269531 80.847656 L 132.386719 81.027344 L 127.347656 79.960938 L 127.578125 79.832031 L 126.644531 84.230469 C 126.488281 84.972656 126.558594 85.609375 126.855469 86.148438 C 127.148438 86.6875 127.695312 87.039062 128.492188 87.210938 C 129.160156 87.351562 129.6875 87.320312 130.074219 87.121094 C 130.457031 86.917969 130.75 86.632812 130.945312 86.257812 C 131.144531 85.882812 131.285156 85.496094 131.371094 85.097656 Z M 131.371094 85.097656 "/>
</g>
<path style=" stroke:none;fill-rule:nonzero;fill:rgb(81.176471%,89.803922%,97.254902%);fill-opacity:1;" d="M 135.132812 100.207031 L 131.691406 106.929688 C 131.550781 107.203125 131.34375 107.386719 131.066406 107.480469 C 130.789062 107.578125 130.515625 107.554688 130.242188 107.414062 C 129.96875 107.277344 129.796875 107.070312 129.726562 106.796875 C 129.652344 106.519531 129.6875 106.25 129.824219 105.976562 L 132.828125 100.109375 L 133.058594 100.472656 L 128.707031 98.246094 L 128.992188 98.167969 L 126.445312 103.144531 C 126.308594 103.414062 126.097656 103.597656 125.820312 103.695312 C 125.542969 103.789062 125.261719 103.761719 124.976562 103.617188 C 124.707031 103.476562 124.535156 103.273438 124.460938 102.996094 C 124.390625 102.722656 124.421875 102.449219 124.5625 102.179688 L 127.085938 97.242188 L 127.191406 97.46875 L 122.703125 95.171875 L 122.929688 95.117188 L 119.957031 100.925781 C 119.816406 101.199219 119.605469 101.378906 119.320312 101.472656 C 119.039062 101.5625 118.773438 101.546875 118.527344 101.417969 C 118.253906 101.28125 118.078125 101.074219 118 100.796875 C 117.921875 100.519531 117.953125 100.242188 118.089844 99.972656 L 121.53125 93.25 C 121.671875 92.976562 121.882812 92.792969 122.171875 92.695312 C 122.457031 92.59375 122.742188 92.617188 123.027344 92.765625 L 134.648438 98.710938 C 134.933594 98.855469 135.117188 99.074219 135.207031 99.363281 C 135.296875 99.65625 135.269531 99.9375 135.132812 100.207031 Z M 135.132812 100.207031 "/>
<path style=" stroke:none;fill-rule:nonzero;fill:rgb(81.176471%,89.803922%,97.254902%);fill-opacity:1;" d="M 118.796875 121.910156 C 118.460938 122.042969 118.15625 122.015625 117.871094 121.832031 C 117.589844 121.644531 117.417969 121.378906 117.355469 121.03125 C 117.300781 120.765625 117.347656 120.527344 117.496094 120.320312 C 117.644531 120.113281 117.851562 119.957031 118.113281 119.863281 C 118.558594 119.695312 118.984375 119.480469 119.390625 119.222656 C 119.800781 118.960938 120.179688 118.636719 120.53125 118.25 C 121.085938 117.632812 121.480469 116.984375 121.722656 116.3125 C 121.964844 115.640625 122.0625 114.957031 122.007812 114.265625 C 121.957031 113.574219 121.757812 112.902344 121.421875 112.257812 C 121.082031 111.613281 120.605469 111.011719 119.988281 110.457031 C 119.304688 109.84375 118.609375 109.40625 117.898438 109.140625 C 117.191406 108.875 116.492188 108.761719 115.800781 108.796875 C 115.113281 108.835938 114.460938 109.019531 113.839844 109.351562 C 113.21875 109.683594 112.648438 110.136719 112.132812 110.710938 C 111.804688 111.078125 111.523438 111.476562 111.292969 111.90625 C 111.066406 112.335938 110.894531 112.785156 110.789062 113.253906 C 110.710938 113.539062 110.574219 113.761719 110.375 113.925781 C 110.179688 114.089844 109.945312 114.160156 109.675781 114.132812 C 109.28125 114.113281 108.992188 113.976562 108.804688 113.71875 C 108.613281 113.460938 108.5625 113.164062 108.648438 112.828125 C 108.738281 112.421875 108.875 112.007812 109.058594 111.585938 C 109.242188 111.164062 109.453125 110.757812 109.691406 110.363281 C 109.925781 109.96875 110.199219 109.597656 110.511719 109.25 C 111.210938 108.472656 112 107.851562 112.882812 107.394531 C 113.765625 106.933594 114.699219 106.65625 115.683594 106.5625 C 116.667969 106.46875 117.660156 106.59375 118.660156 106.9375 C 119.664062 107.277344 120.632812 107.867188 121.5625 108.703125 C 122.394531 109.453125 123.039062 110.289062 123.488281 111.210938 C 123.941406 112.136719 124.1875 113.089844 124.230469 114.078125 C 124.273438 115.0625 124.121094 116.039062 123.777344 117 C 123.433594 117.960938 122.886719 118.859375 122.136719 119.691406 C 121.671875 120.210938 121.152344 120.660156 120.578125 121.035156 C 120.007812 121.410156 119.414062 121.703125 118.796875 121.910156 Z M 118.796875 121.910156 "/>
<path style=" stroke:none;fill-rule:nonzero;fill:rgb(81.176471%,89.803922%,97.254902%);fill-opacity:1;" d="M 97.007812 128.824219 C 96.433594 127.878906 96.054688 126.902344 95.871094 125.902344 C 95.6875 124.898438 95.691406 123.917969 95.886719 122.964844 C 96.082031 122.011719 96.460938 121.132812 97.023438 120.320312 C 97.585938 119.511719 98.328125 118.824219 99.25 118.265625 C 100.15625 117.714844 101.097656 117.375 102.078125 117.246094 C 103.054688 117.121094 104.015625 117.191406 104.949219 117.457031 C 105.886719 117.71875 106.753906 118.167969 107.554688 118.796875 C 108.351562 119.425781 109.039062 120.214844 109.613281 121.15625 C 110.191406 122.101562 110.570312 123.074219 110.761719 124.074219 C 110.953125 125.074219 110.949219 126.050781 110.753906 127.003906 C 110.558594 127.957031 110.179688 128.839844 109.617188 129.648438 C 109.054688 130.460938 108.320312 131.140625 107.410156 131.691406 C 106.492188 132.253906 105.542969 132.59375 104.5625 132.722656 C 103.585938 132.847656 102.628906 132.78125 101.691406 132.515625 C 100.757812 132.25 99.886719 131.804688 99.078125 131.179688 C 98.273438 130.554688 97.582031 129.769531 97.007812 128.824219 Z M 99.023438 127.597656 C 99.582031 128.519531 100.269531 129.234375 101.082031 129.746094 C 101.894531 130.253906 102.75 130.523438 103.65625 130.554688 C 104.558594 130.585938 105.433594 130.34375 106.277344 129.828125 C 107.109375 129.320312 107.722656 128.660156 108.113281 127.84375 C 108.5 127.027344 108.65625 126.148438 108.574219 125.203125 C 108.492188 124.253906 108.167969 123.316406 107.601562 122.382812 C 107.042969 121.460938 106.359375 120.746094 105.550781 120.230469 C 104.746094 119.71875 103.890625 119.445312 102.988281 119.414062 C 102.082031 119.386719 101.214844 119.625 100.382812 120.128906 C 99.535156 120.644531 98.917969 121.308594 98.53125 122.125 C 98.140625 122.941406 97.984375 123.828125 98.0625 124.785156 C 98.144531 125.742188 98.464844 126.679688 99.023438 127.597656 Z M 99.023438 127.597656 "/>
<g clip-path="url(#clip2)" clip-rule="nonzero">
<path style=" stroke:none;fill-rule:nonzero;fill:rgb(81.176471%,89.803922%,97.254902%);fill-opacity:1;" d="M 91.6875 138.867188 C 91.519531 138.90625 91.332031 138.902344 91.128906 138.855469 C 90.925781 138.8125 90.753906 138.722656 90.621094 138.589844 L 83.398438 131.523438 L 84.324219 131.367188 L 80.601562 140.785156 C 80.445312 141.160156 80.191406 141.390625 79.835938 141.46875 C 79.550781 141.53125 79.277344 141.480469 79.011719 141.324219 C 78.746094 141.167969 78.578125 140.929688 78.511719 140.617188 L 75.710938 127.847656 C 75.640625 127.535156 75.683594 127.253906 75.835938 127.003906 C 75.992188 126.753906 76.230469 126.59375 76.558594 126.523438 C 76.898438 126.449219 77.195312 126.492188 77.445312 126.652344 C 77.699219 126.8125 77.859375 127.050781 77.925781 127.363281 L 80.296875 138.171875 L 79.582031 138.171875 L 82.707031 130 C 82.777344 129.851562 82.882812 129.714844 83.015625 129.585938 C 83.152344 129.460938 83.308594 129.386719 83.480469 129.363281 C 83.632812 129.3125 83.804688 129.316406 83.988281 129.375 C 84.171875 129.429688 84.328125 129.511719 84.453125 129.617188 L 90.515625 135.660156 L 90.191406 136.625 L 87.691406 125.222656 C 87.621094 124.910156 87.660156 124.628906 87.808594 124.378906 C 87.953125 124.132812 88.183594 123.972656 88.496094 123.90625 C 88.792969 123.839844 89.0625 123.890625 89.300781 124.054688 C 89.535156 124.214844 89.691406 124.457031 89.757812 124.769531 L 92.558594 137.539062 C 92.625 137.835938 92.570312 138.117188 92.398438 138.378906 C 92.222656 138.640625 91.988281 138.800781 91.6875 138.867188 Z M 91.6875 138.867188 "/>
</g>
<g clip-path="url(#clip3)" clip-rule="nonzero">
<path style=" stroke:none;fill-rule:nonzero;fill:rgb(81.176471%,89.803922%,97.254902%);fill-opacity:1;" d="M 68.460938 141.84375 L 60.929688 141.273438 C 60.625 141.25 60.375 141.128906 60.179688 140.910156 C 59.984375 140.691406 59.898438 140.429688 59.921875 140.125 C 59.945312 139.820312 60.070312 139.582031 60.292969 139.40625 C 60.519531 139.234375 60.785156 139.160156 61.089844 139.183594 L 67.660156 139.679688 L 67.414062 140.035156 L 67.785156 135.160156 L 67.964844 135.390625 L 62.394531 134.96875 C 62.089844 134.945312 61.839844 134.824219 61.644531 134.605469 C 61.449219 134.386719 61.363281 134.117188 61.386719 133.800781 C 61.410156 133.496094 61.535156 133.257812 61.757812 133.082031 C 61.984375 132.910156 62.25 132.835938 62.554688 132.859375 L 68.082031 133.277344 L 67.914062 133.460938 L 68.292969 128.433594 L 68.433594 128.621094 L 61.925781 128.128906 C 61.621094 128.105469 61.371094 127.980469 61.175781 127.753906 C 60.984375 127.527344 60.894531 127.277344 60.917969 127 C 60.941406 126.695312 61.0625 126.453125 61.289062 126.273438 C 61.515625 126.09375 61.78125 126.015625 62.085938 126.039062 L 69.613281 126.609375 C 69.917969 126.632812 70.171875 126.757812 70.375 126.984375 C 70.574219 127.210938 70.664062 127.484375 70.640625 127.800781 L 69.65625 140.816406 C 69.628906 141.136719 69.5 141.390625 69.269531 141.585938 C 69.035156 141.78125 68.765625 141.867188 68.460938 141.84375 Z M 68.460938 141.84375 "/>
</g>
<path style=" stroke:none;fill-rule:nonzero;fill:rgb(81.176471%,89.803922%,97.254902%);fill-opacity:1;" d="M 33.851562 122.960938 C 34.378906 121.988281 35.03125 121.171875 35.808594 120.507812 C 36.582031 119.84375 37.433594 119.359375 38.355469 119.050781 C 39.277344 118.742188 40.230469 118.625 41.214844 118.707031 C 42.195312 118.785156 43.160156 119.085938 44.105469 119.597656 C 45.039062 120.105469 45.804688 120.753906 46.40625 121.535156 C 47.007812 122.320312 47.429688 123.183594 47.667969 124.125 C 47.910156 125.066406 47.957031 126.042969 47.816406 127.050781 C 47.671875 128.058594 47.335938 129.046875 46.808594 130.015625 C 46.277344 130.988281 45.628906 131.808594 44.859375 132.472656 C 44.089844 133.140625 43.246094 133.628906 42.324219 133.9375 C 41.402344 134.246094 40.449219 134.363281 39.464844 134.28125 C 38.480469 134.199219 37.523438 133.90625 36.589844 133.398438 C 35.644531 132.882812 34.871094 132.234375 34.269531 131.453125 C 33.667969 130.667969 33.25 129.804688 33.007812 128.863281 C 32.769531 127.921875 32.714844 126.945312 32.851562 125.933594 C 32.988281 124.921875 33.320312 123.929688 33.851562 122.960938 Z M 35.921875 124.085938 C 35.40625 125.03125 35.132812 125.984375 35.097656 126.945312 C 35.0625 127.902344 35.261719 128.78125 35.6875 129.578125 C 36.117188 130.375 36.765625 131.007812 37.632812 131.480469 C 38.488281 131.949219 39.367188 132.144531 40.269531 132.074219 C 41.171875 132 42.007812 131.691406 42.789062 131.144531 C 43.566406 130.601562 44.214844 129.847656 44.738281 128.890625 C 45.253906 127.945312 45.53125 126.992188 45.570312 126.039062 C 45.609375 125.082031 45.417969 124.207031 44.988281 123.410156 C 44.5625 122.613281 43.917969 121.980469 43.0625 121.515625 C 42.195312 121.042969 41.308594 120.84375 40.40625 120.914062 C 39.507812 120.988281 38.664062 121.296875 37.875 121.847656 C 37.085938 122.394531 36.4375 123.140625 35.921875 124.085938 Z M 35.921875 124.085938 "/>
<path style=" stroke:none;fill-rule:nonzero;fill:rgb(81.176471%,89.803922%,97.254902%);fill-opacity:1;" d="M 15.613281 116.019531 C 15.414062 115.808594 15.320312 115.570312 15.339844 115.304688 C 15.355469 115.035156 15.46875 114.804688 15.679688 114.601562 L 25.195312 105.542969 C 25.425781 105.324219 25.691406 105.214844 25.992188 105.222656 C 26.289062 105.230469 26.546875 105.351562 26.769531 105.582031 C 26.871094 105.6875 26.957031 105.820312 27.03125 105.980469 C 27.101562 106.144531 27.132812 106.289062 27.117188 106.425781 L 24.878906 120.941406 L 24.328125 120.773438 L 32.46875 113.023438 C 32.667969 112.832031 32.902344 112.738281 33.175781 112.742188 C 33.449219 112.742188 33.6875 112.847656 33.886719 113.058594 C 34.097656 113.28125 34.195312 113.523438 34.175781 113.792969 C 34.160156 114.058594 34.050781 114.289062 33.851562 114.480469 L 24.320312 123.550781 C 24.078125 123.785156 23.808594 123.890625 23.507812 123.871094 C 23.210938 123.855469 22.957031 123.734375 22.746094 123.515625 C 22.636719 123.398438 22.542969 123.25 22.464844 123.074219 C 22.386719 122.898438 22.363281 122.730469 22.398438 122.578125 L 24.617188 108.382812 L 25.0625 108.410156 L 17.046875 116.039062 C 16.839844 116.242188 16.597656 116.339844 16.324219 116.339844 C 16.050781 116.335938 15.8125 116.230469 15.613281 116.019531 Z M 15.613281 116.019531 "/>
<path style=" stroke:none;fill-rule:nonzero;fill:rgb(81.176471%,89.803922%,97.254902%);fill-opacity:1;" d="M 9.371094 106.878906 L 5.855469 100.195312 C 5.710938 99.925781 5.683594 99.648438 5.765625 99.367188 C 5.847656 99.085938 6.023438 98.875 6.292969 98.734375 C 6.5625 98.589844 6.832031 98.570312 7.097656 98.667969 C 7.363281 98.765625 7.566406 98.949219 7.710938 99.21875 L 10.777344 105.054688 L 10.347656 105.035156 L 14.675781 102.757812 L 14.574219 103.03125 L 11.972656 98.089844 C 11.828125 97.816406 11.800781 97.542969 11.882812 97.261719 C 11.964844 96.980469 12.144531 96.761719 12.429688 96.613281 C 12.699219 96.472656 12.96875 96.449219 13.234375 96.550781 C 13.5 96.648438 13.703125 96.832031 13.84375 97.101562 L 16.425781 102.007812 L 16.179688 101.964844 L 20.640625 99.617188 L 20.558594 99.832031 L 17.519531 94.058594 C 17.378906 93.789062 17.351562 93.511719 17.441406 93.226562 C 17.527344 92.941406 17.695312 92.734375 17.941406 92.605469 C 18.210938 92.460938 18.480469 92.4375 18.753906 92.535156 C 19.027344 92.628906 19.234375 92.8125 19.375 93.082031 L 22.890625 99.765625 C 23.035156 100.035156 23.0625 100.316406 22.976562 100.609375 C 22.890625 100.898438 22.707031 101.121094 22.425781 101.269531 L 10.875 107.347656 C 10.589844 107.496094 10.304688 107.523438 10.015625 107.425781 C 9.726562 107.332031 9.511719 107.148438 9.371094 106.878906 Z M 9.371094 106.878906 "/>
<path style=" stroke:none;fill-rule:nonzero;fill:rgb(81.176471%,89.803922%,97.254902%);fill-opacity:1;" d="M 10.851562 79.28125 C 10.921875 79.816406 10.859375 80.328125 10.652344 80.820312 C 10.449219 81.308594 10.144531 81.71875 9.734375 82.046875 C 9.324219 82.375 8.851562 82.574219 8.316406 82.648438 C 7.742188 82.730469 7.210938 82.664062 6.726562 82.449219 C 6.242188 82.238281 5.839844 81.925781 5.519531 81.515625 C 5.195312 81.105469 5 80.632812 4.925781 80.097656 C 4.851562 79.550781 4.910156 79.035156 5.109375 78.554688 C 5.308594 78.070312 5.609375 77.660156 6.019531 77.328125 C 6.429688 76.992188 6.921875 76.785156 7.5 76.703125 C 8.03125 76.628906 8.539062 76.699219 9.027344 76.914062 C 9.511719 77.125 9.917969 77.4375 10.246094 77.847656 C 10.574219 78.253906 10.773438 78.734375 10.851562 79.28125 Z M 10.851562 79.28125 "/>
<path style=" stroke:none;fill-rule:nonzero;fill:rgb(81.176471%,89.803922%,97.254902%);fill-opacity:1;" d="M 71.746094 34.105469 C 71.015625 33.40625 69.867188 33.40625 69.136719 34.105469 C 68.925781 34.3125 66.347656 36.855469 63.789062 40.320312 C 63 41.394531 62.257812 42.5 61.574219 43.644531 C 59.878906 46.480469 58.574219 49.585938 58.574219 52.425781 C 58.574219 55.269531 59.4375 57.527344 60.832031 59.304688 C 61.671875 60.363281 62.6875 61.222656 63.824219 61.898438 C 65.820312 63.089844 68.167969 63.699219 70.515625 63.699219 C 76.449219 63.699219 82.457031 59.828125 82.457031 52.425781 C 82.457031 44.507812 72.1875 34.515625 71.746094 34.097656 Z M 70.515625 59.957031 C 69.046875 59.957031 67.832031 59.714844 66.816406 59.304688 C 65.492188 58.765625 64.523438 57.945312 63.824219 57.015625 C 62.722656 55.53125 62.324219 53.761719 62.324219 52.425781 C 62.324219 50.882812 62.910156 49.113281 63.8125 47.320312 C 64.433594 46.074219 65.207031 44.828125 66.03125 43.636719 C 67.5 41.492188 69.160156 39.542969 70.457031 38.132812 C 73.566406 41.460938 78.707031 47.882812 78.707031 52.425781 C 78.707031 55.222656 76.980469 59.949219 70.515625 59.949219 Z M 102.714844 76.667969 C 99.910156 78.175781 97.164062 78.929688 94.5625 78.929688 C 89.769531 78.929688 85.929688 76.929688 82.222656 74.992188 C 78.628906 73.117188 74.917969 71.183594 70.515625 71.183594 C 66.113281 71.183594 62.402344 73.117188 58.808594 74.992188 C 55.097656 76.929688 51.261719 78.929688 46.472656 78.929688 C 43.867188 78.929688 41.128906 78.167969 38.316406 76.667969 C 37.40625 76.179688 36.273438 76.519531 35.785156 77.429688 C 35.296875 78.347656 35.632812 79.480469 36.546875 79.964844 C 39.910156 81.765625 43.246094 82.679688 46.472656 82.679688 C 52.179688 82.679688 56.625 80.363281 60.539062 78.316406 C 63.878906 76.578125 67.027344 74.933594 70.515625 74.933594 C 74.003906 74.933594 77.152344 76.578125 80.492188 78.316406 C 84.414062 80.363281 88.851562 82.679688 94.5625 82.679688 C 97.785156 82.679688 101.125 81.765625 104.484375 79.964844 C 105.394531 79.476562 105.738281 78.34375 105.25 77.429688 C 104.757812 76.519531 103.625 76.179688 102.714844 76.667969 Z M 102.714844 92.378906 C 99.910156 93.886719 97.164062 94.644531 94.5625 94.644531 C 89.769531 94.644531 85.929688 92.640625 82.222656 90.707031 C 78.628906 88.832031 74.917969 86.898438 70.515625 86.898438 C 66.113281 86.898438 62.402344 88.832031 58.808594 90.707031 C 55.097656 92.640625 51.261719 94.644531 46.472656 94.644531 C 43.867188 94.644531 41.125 93.878906 38.316406 92.378906 C 37.402344 91.890625 36.269531 92.230469 35.785156 93.144531 C 35.296875 94.058594 35.632812 95.191406 36.546875 95.679688 C 39.902344 97.480469 43.246094 98.394531 46.472656 98.394531 C 52.179688 98.394531 56.625 96.078125 60.539062 94.027344 C 63.878906 92.289062 67.027344 90.648438 70.515625 90.648438 C 74.003906 90.648438 77.152344 92.289062 80.492188 94.027344 C 84.414062 96.078125 88.851562 98.394531 94.5625 98.394531 C 97.785156 98.394531 101.125 97.480469 104.484375 95.679688 C 105.394531 95.191406 105.738281 94.054688 105.25 93.144531 C 104.757812 92.234375 103.625 91.890625 102.714844 92.378906 Z M 102.714844 92.378906 "/>
</g>
</svg>
