<?xml version="1.0" encoding="utf-8"?>
<svg viewBox="187.112 25.307 257.085 105.919" xmlns="http://www.w3.org/2000/svg">
  <path class="cls-1" d="M 334.926 26.146 C 333.756 25.026 331.906 25.026 330.746 26.156 C 330.056 26.826 313.846 42.816 313.846 55.506 C 313.846 67.356 323.466 73.556 332.966 73.556 C 342.466 73.556 352.086 67.356 352.086 55.506 C 352.086 42.806 335.636 26.816 334.936 26.146 L 334.926 26.146 Z M 332.956 67.556 C 322.606 67.556 319.836 59.986 319.836 55.506 C 319.836 48.236 327.926 37.946 332.856 32.606 C 337.846 37.936 346.066 48.226 346.066 55.506 C 346.066 59.976 343.306 67.556 332.946 67.556 L 332.956 67.556 Z" style="fill: rgb(255, 255, 255);"/>
  <path class="cls-1" d="M 334.926 83.816 C 333.756 82.696 331.906 82.696 330.746 83.826 C 330.056 84.496 313.846 100.486 313.846 113.176 C 313.846 125.026 323.466 131.226 332.966 131.226 C 342.466 131.226 352.086 125.026 352.086 113.176 C 352.086 100.476 335.636 84.486 334.936 83.816 L 334.926 83.816 Z M 332.956 125.226 C 322.606 125.226 319.836 117.656 319.836 113.176 C 319.836 105.906 327.926 95.616 332.856 90.276 C 337.846 95.606 346.066 105.916 346.066 113.176 C 346.066 117.646 343.306 125.226 332.946 125.226 L 332.956 125.226 Z" style="fill: rgb(255, 255, 255);"/>
  <path class="cls-1" d="M 193.386 71.416 L 209.896 71.416 C 211.526 71.416 213.196 71.216 214.896 70.806 C 216.596 70.396 218.156 69.696 219.566 68.706 C 220.986 67.716 222.126 66.356 222.986 64.616 C 223.846 62.876 224.276 60.696 224.276 58.076 C 224.276 55.666 223.806 53.656 222.856 52.046 C 221.906 50.436 220.706 49.156 219.246 48.206 C 218.286 47.586 217.276 47.096 216.226 46.716 C 216.316 46.676 216.416 46.646 216.506 46.596 C 218.286 45.696 219.646 44.456 220.566 42.886 C 221.486 41.316 221.956 39.566 221.956 37.636 C 221.956 33.936 220.936 31.126 218.896 29.186 C 216.856 27.256 213.856 26.286 209.906 26.286 L 193.396 26.286 C 192.496 26.286 191.716 26.596 191.076 27.226 C 190.426 27.846 190.106 28.636 190.106 29.576 L 190.106 68.136 C 190.106 69.086 190.426 69.866 191.076 70.486 C 191.716 71.106 192.496 71.426 193.396 71.426 L 193.386 71.416 Z M 215.246 63.456 C 213.866 64.636 212.066 65.226 209.826 65.226 L 197.056 65.226 L 197.056 51.046 L 209.436 51.046 C 210.636 51.046 211.846 51.216 213.046 51.566 C 214.246 51.906 215.256 52.576 216.076 53.566 C 216.896 54.556 217.306 56.056 217.306 58.076 C 217.306 60.486 216.616 62.276 215.246 63.456 Z M 213.376 34.116 C 214.446 35.126 214.986 36.646 214.986 38.666 C 214.986 40.686 214.396 42.136 213.216 43.146 C 212.036 44.156 210.666 44.686 209.126 44.726 L 197.066 44.726 L 197.066 32.606 L 208.996 32.606 C 210.846 32.606 212.306 33.116 213.376 34.126 L 213.376 34.116 Z" style="fill: rgb(255, 255, 255);"/>
  <path class="cls-1" d="M 236.196 71.416 L 258.506 71.416 C 259.406 71.416 260.176 71.126 260.796 70.546 C 261.416 69.966 261.726 69.226 261.726 68.326 C 261.726 67.506 261.416 66.786 260.796 66.166 C 260.176 65.546 259.406 65.226 258.506 65.226 L 239.676 65.226 L 239.676 51.426 L 255.606 51.426 C 256.506 51.426 257.276 51.146 257.896 50.586 C 258.516 50.026 258.836 49.296 258.836 48.396 C 258.836 47.496 258.526 46.676 257.896 46.076 C 257.276 45.476 256.506 45.176 255.606 45.176 L 239.676 45.176 L 239.676 32.476 L 258.506 32.476 C 259.406 32.476 260.176 32.196 260.796 31.636 C 261.416 31.076 261.726 30.346 261.726 29.446 C 261.726 28.546 261.416 27.796 260.796 27.186 C 260.176 26.586 259.406 26.286 258.506 26.286 L 236.196 26.286 C 235.296 26.286 234.516 26.596 233.876 27.226 C 233.226 27.846 232.906 28.636 232.906 29.576 L 232.906 68.136 C 232.906 69.086 233.226 69.866 233.876 70.486 C 234.516 71.106 235.296 71.426 236.196 71.426 L 236.196 71.416 Z" style="fill: rgb(255, 255, 255);"/>
  <path class="cls-1" d="M 301.476 63.126 C 300.726 63.016 299.966 63.156 299.186 63.546 C 297.936 64.236 296.616 64.746 295.226 65.096 C 293.826 65.436 292.396 65.616 290.936 65.616 C 288.656 65.616 286.536 65.266 284.586 64.556 C 282.626 63.846 280.936 62.776 279.496 61.336 C 278.056 59.896 276.926 58.136 276.116 56.046 C 275.296 53.966 274.896 51.566 274.896 48.856 C 274.896 46.406 275.276 44.176 276.026 42.146 C 276.776 40.126 277.866 38.376 279.286 36.896 C 280.706 35.416 282.386 34.276 284.346 33.476 C 286.306 32.686 288.506 32.286 290.956 32.286 C 292.506 32.286 293.966 32.476 295.336 32.866 C 296.716 33.256 298.026 33.766 299.266 34.416 C 299.996 34.806 300.736 34.956 301.486 34.866 C 302.236 34.776 302.856 34.416 303.326 33.766 C 303.966 32.946 304.216 32.046 304.066 31.056 C 303.916 30.066 303.366 29.336 302.426 28.866 C 300.746 27.926 298.936 27.186 296.976 26.676 C 295.016 26.156 293.006 25.906 290.946 25.906 C 287.636 25.906 284.586 26.476 281.786 27.616 C 278.996 28.756 276.556 30.346 274.466 32.386 C 272.386 34.426 270.766 36.856 269.626 39.676 C 268.486 42.496 267.916 45.556 267.916 48.866 C 267.916 52.566 268.526 55.856 269.756 58.736 C 270.986 61.616 272.666 64.046 274.816 66.026 C 276.966 68.006 279.416 69.506 282.166 70.536 C 284.916 71.566 287.836 72.086 290.936 72.086 C 292.316 72.086 293.666 71.956 294.996 71.696 C 296.326 71.436 297.636 71.096 298.926 70.666 C 300.216 70.236 301.396 69.726 302.476 69.116 C 303.376 68.646 303.926 67.946 304.116 67.016 C 304.306 66.096 304.036 65.176 303.306 64.276 C 302.836 63.626 302.216 63.256 301.466 63.146 L 301.476 63.126 Z" style="fill: rgb(255, 255, 255);"/>
  <path class="cls-1" d="M 400.936 26.216 C 399.856 26.216 398.976 26.706 398.296 27.696 L 382.956 50.496 L 367.986 27.696 C 367.686 27.226 367.256 26.856 366.696 26.596 C 366.136 26.336 365.596 26.206 365.086 26.206 C 364.186 26.206 363.396 26.526 362.736 27.176 C 362.066 27.826 361.736 28.596 361.736 29.496 L 361.736 68.116 C 361.736 69.066 362.026 69.846 362.606 70.466 C 363.186 71.086 363.926 71.406 364.826 71.406 C 365.726 71.406 366.536 71.096 367.116 70.466 C 367.696 69.846 367.986 69.056 367.986 68.116 L 367.986 38.606 L 380.106 57.476 C 380.406 57.866 380.806 58.196 381.296 58.476 C 381.786 58.756 382.276 58.876 382.746 58.826 C 383.266 58.866 383.756 58.756 384.226 58.476 C 384.696 58.196 385.086 57.866 385.386 57.476 L 397.506 39.016 L 397.506 68.116 C 397.506 69.066 397.816 69.846 398.436 70.466 C 399.056 71.086 399.886 71.406 400.916 71.406 C 401.946 71.406 402.696 71.096 403.306 70.466 C 403.906 69.846 404.206 69.056 404.206 68.116 L 404.206 29.496 C 404.206 28.556 403.876 27.766 403.206 27.146 C 402.536 26.526 401.776 26.206 400.916 26.206 L 400.936 26.216 Z" style="fill: rgb(255, 255, 255);"/>
  <path class="cls-1" d="M 418.666 71.416 L 440.976 71.416 C 441.876 71.416 442.646 71.126 443.266 70.546 C 443.886 69.966 444.196 69.226 444.196 68.326 C 444.196 67.506 443.886 66.786 443.266 66.166 C 442.646 65.546 441.876 65.226 440.976 65.226 L 422.146 65.226 L 422.146 51.426 L 438.076 51.426 C 438.976 51.426 439.746 51.146 440.366 50.586 C 440.986 50.026 441.296 49.296 441.296 48.396 C 441.296 47.496 440.986 46.676 440.366 46.076 C 439.746 45.476 438.976 45.176 438.076 45.176 L 422.146 45.176 L 422.146 32.476 L 440.976 32.476 C 441.876 32.476 442.646 32.196 443.266 31.636 C 443.886 31.076 444.196 30.346 444.196 29.446 C 444.196 28.546 443.886 27.796 443.266 27.186 C 442.646 26.586 441.876 26.286 440.976 26.286 L 418.666 26.286 C 417.766 26.286 416.986 26.596 416.346 27.226 C 415.706 27.846 415.376 28.636 415.376 29.576 L 415.376 68.136 C 415.376 69.086 415.696 69.866 416.346 70.486 C 416.986 71.106 417.766 71.426 418.666 71.426 L 418.666 71.416 Z" style="fill: rgb(255, 255, 255);"/>
  <path class="cls-1" d="M 396.956 83.946 C 396.096 83.946 395.386 84.236 394.826 84.816 C 394.266 85.396 393.986 86.116 393.986 86.976 L 393.986 117.506 L 369.096 85.106 C 368.836 84.716 368.436 84.426 367.906 84.236 C 367.376 84.046 366.866 83.946 366.396 83.946 C 365.496 83.946 364.716 84.246 364.076 84.846 C 363.436 85.446 363.106 86.246 363.106 87.236 L 363.106 126.116 C 363.106 126.936 363.376 127.636 363.916 128.216 C 364.456 128.796 365.176 129.086 366.076 129.086 C 366.976 129.086 367.646 128.796 368.206 128.216 C 368.766 127.636 369.046 126.936 369.046 126.116 L 369.046 95.676 L 394.066 128.116 C 394.326 128.416 394.696 128.656 395.196 128.826 C 395.686 128.996 396.156 129.086 396.586 129.086 C 397.536 129.086 398.316 128.776 398.936 128.146 C 399.556 127.526 399.876 126.736 399.876 125.796 L 399.876 86.986 C 399.876 86.126 399.606 85.406 399.066 84.826 C 398.526 84.246 397.826 83.956 396.966 83.956 L 396.956 83.946 Z" style="fill: rgb(255, 255, 255);"/>
  <path class="cls-1" d="M 440.976 122.896 L 422.146 122.896 L 422.146 109.096 L 438.076 109.096 C 438.976 109.096 439.746 108.816 440.366 108.256 C 440.986 107.696 441.306 106.966 441.306 106.066 C 441.306 105.166 440.996 104.346 440.366 103.746 C 439.746 103.146 438.976 102.846 438.076 102.846 L 422.146 102.846 L 422.146 90.146 L 440.976 90.146 C 441.876 90.146 442.646 89.866 443.266 89.306 C 443.886 88.746 444.196 88.016 444.196 87.116 C 444.196 86.216 443.886 85.466 443.266 84.856 C 442.646 84.256 441.876 83.956 440.976 83.956 L 418.666 83.956 C 417.766 83.956 416.986 84.266 416.346 84.896 C 415.696 85.516 415.376 86.306 415.376 87.246 L 415.376 125.806 C 415.376 126.756 415.696 127.536 416.346 128.156 C 416.986 128.776 417.766 129.096 418.666 129.096 L 440.976 129.096 C 441.876 129.096 442.646 128.806 443.266 128.226 C 443.886 127.646 444.196 126.906 444.196 126.006 C 444.196 125.186 443.886 124.466 443.266 123.846 C 442.646 123.226 441.876 122.906 440.976 122.906 L 440.976 122.896 Z" style="fill: rgb(255, 255, 255);"/>
  <path class="cls-1" d="M 294.646 94.286 C 290.156 96.696 285.756 97.916 281.596 97.916 C 273.926 97.916 267.776 94.706 261.836 91.606 C 256.086 88.606 250.136 85.506 243.086 85.506 C 236.036 85.506 230.086 88.606 224.336 91.606 C 218.396 94.706 212.246 97.916 204.576 97.916 C 200.406 97.916 196.016 96.696 191.526 94.286 C 190.066 93.506 188.246 94.056 187.466 95.516 C 186.686 96.976 187.236 98.796 188.696 99.576 C 194.076 102.456 199.416 103.926 204.586 103.926 C 213.736 103.926 220.846 100.216 227.126 96.936 C 232.466 94.146 237.516 91.516 243.096 91.516 C 248.676 91.516 253.726 94.146 259.066 96.936 C 265.346 100.216 272.456 103.926 281.606 103.926 C 286.776 103.926 292.116 102.466 297.496 99.576 C 298.956 98.796 299.506 96.976 298.726 95.516 C 297.946 94.056 296.126 93.506 294.666 94.286 L 294.646 94.286 Z" style="fill: rgb(255, 255, 255);"/>
  <path class="cls-1" d="M 294.646 119.446 C 290.156 121.856 285.766 123.076 281.596 123.076 C 273.926 123.076 267.776 119.866 261.836 116.766 C 256.086 113.766 250.136 110.666 243.086 110.666 C 236.036 110.666 230.086 113.766 224.336 116.766 C 218.396 119.866 212.246 123.076 204.576 123.076 C 200.406 123.076 196.016 121.856 191.526 119.446 C 190.066 118.666 188.246 119.216 187.466 120.676 C 186.686 122.136 187.236 123.956 188.696 124.736 C 194.076 127.616 199.416 129.086 204.586 129.086 C 213.736 129.086 220.846 125.376 227.126 122.096 C 232.466 119.306 237.516 116.676 243.096 116.676 C 248.676 116.676 253.726 119.306 259.066 122.096 C 265.346 125.376 272.456 129.086 281.606 129.086 C 286.776 129.086 292.116 127.626 297.496 124.736 C 298.956 123.956 299.506 122.136 298.726 120.676 C 297.946 119.216 296.126 118.666 294.666 119.446 L 294.646 119.446 Z" style="fill: rgb(255, 255, 255);"/>
</svg>